<svg width="424" height="356" viewBox="0 0 424 356" fill="none" xmlns="http://www.w3.org/2000/svg">
<path d="M151.904 0.999971C149.113 1.29434 146.447 2.02074 144.096 3.12763C144.096 3.12763 119.769 13.9841 93.6155 25.7272C67.4617 37.4566 38.3655 50.3862 31.7117 53.0049C31.3013 53.1312 30.8972 53.2677 30.5002 53.414C6.34631 63.9842 1.32708 81.2509 0.461693 90.9345C0.404001 91.3846 0.461693 91.7528 0.461693 92.2302C0.250154 95.8581 0.461693 98.1904 0.461693 98.1904V276.355C0.461693 302.241 43.0194 314.693 83.404 314.693C96.8655 314.693 110.327 313.152 121.866 310.424C129.558 307.697 135.077 302.241 135.077 296.786V153.578C135.077 122.208 144.692 107.478 173.539 95.2035C181.231 92.4757 261.885 52.9912 261.885 52.9912C265.731 50.2635 269.692 44.7261 269.692 40.6345V39.3524C269.692 33.8969 265.846 29.7234 260.077 26.9956C254.308 24.2678 246.616 24.2678 240.846 26.9956C238.923 28.3595 121.616 84.3742 96.6155 93.9214C71.6155 104.832 48.2886 107.465 42.5194 102.009C40.7309 100.741 39.1732 96.8538 38.9232 93.0622V92.2029C38.9425 88.4932 40.2886 81.5101 50.9425 76.8592C61.7501 72.5903 88.5771 60.4381 114.654 48.7359C125.673 43.785 127.039 43.2531 135.673 39.3524C136.81 42.6843 139.674 45.5904 143.695 47.4923C147.717 49.3942 152.6 50.1524 157.374 49.6159C162.148 49.0794 166.462 47.2876 169.458 44.5971C172.453 41.9067 173.91 38.515 173.539 35.0971V14.6388C173.56 12.6948 172.995 10.77 171.882 8.99341C170.769 7.21684 169.133 5.62956 167.085 4.33799C165.036 3.04642 162.621 2.0804 160.003 1.50469C157.385 0.928988 154.624 0.756902 151.904 0.999971ZM305.75 48.7359C302.692 49.0966 299.802 49.9763 297.327 51.3C297.327 51.3 200.519 97.4948 183.75 105.419C183.547 105.561 183.348 105.707 183.154 105.855C169.231 113.261 160.981 122.072 157.308 130.133C155.25 134.68 154.237 139.432 154.308 144.208V148.477C154.28 148.899 154.28 149.323 154.308 149.745V314.693C154.308 340.607 196.385 355.61 234.846 355.61C252.154 355.61 267.769 352.964 279.308 347.508C302.385 337.961 413.923 276.341 413.923 276.341C419.692 273.613 423.539 269.767 423.539 265.675V88.3704C423.539 81.551 419.808 77.4593 412.116 74.7316C406.346 72.0038 396.866 73.2858 391.096 76.0136C360.327 92.3802 277.5 138.589 258.269 146.772C231.346 157.683 205.981 160.411 196.366 153.591C192.519 150.864 192.769 148.299 192.769 144.208C192.885 141.862 193.25 139.843 193.981 138.234C195.058 135.861 197.25 132.942 205.385 128.441C205.769 128.223 205.577 128.237 205.981 128.019C219.885 121.431 262.404 100.877 290.135 87.5112C291.706 90.5004 294.705 93.0044 298.61 94.5878C302.514 96.1711 307.078 96.7336 311.508 96.1773C315.937 95.6211 319.951 93.9813 322.852 91.5433C325.752 89.1052 327.357 86.0231 327.385 82.833V62.3748C327.406 60.4308 326.842 58.5059 325.728 56.7294C324.615 54.9528 322.98 53.3655 320.931 52.0739C318.882 50.7824 316.468 49.8164 313.849 49.2406C311.231 48.6649 308.47 48.4929 305.75 48.7359ZM385.077 148.477V175.754L288.923 228.591V201.314L385.077 148.477Z" fill="#FFFEFC"/>
</svg>
