<svg width="119" height="88" viewBox="0 0 119 88" fill="none" xmlns="http://www.w3.org/2000/svg">
<g filter="url(#filter0_d_861_2979)">
<path d="M4.65922 42.22L27.2864 76.435C28.0067 77.5309 28.9846 78.4299 30.1328 79.0519C31.2811 79.674 32.5641 79.9997 33.8674 80L107.071 80C109.174 80 111.191 79.1571 112.678 77.6569C114.165 76.1566 115 74.1217 115 72L115 8C115 5.87827 114.165 3.84344 112.678 2.34315C111.191 0.842856 109.174 0 107.071 0L33.8674 0C32.565 0.00243292 31.2833 0.328508 30.1355 0.949409C28.9877 1.57031 28.0092 2.46692 27.2864 3.56L4.67408 37.78C4.23722 38.4358 4.00267 39.2075 4.00002 39.9977C3.99738 40.7879 4.22676 41.5612 4.65922 42.22Z" fill="url(#paint0_linear_861_2979)"/>
<path d="M4.65922 42.22L27.2864 76.435C28.0067 77.5309 28.9846 78.4299 30.1328 79.0519C31.2811 79.674 32.5641 79.9997 33.8674 80L107.071 80C109.174 80 111.191 79.1571 112.678 77.6569C114.165 76.1566 115 74.1217 115 72L115 8C115 5.87827 114.165 3.84344 112.678 2.34315C111.191 0.842856 109.174 0 107.071 0L33.8674 0C32.565 0.00243292 31.2833 0.328508 30.1355 0.949409C28.9877 1.57031 28.0092 2.46692 27.2864 3.56L4.67408 37.78C4.23722 38.4358 4.00267 39.2075 4.00002 39.9977C3.99738 40.7879 4.22676 41.5612 4.65922 42.22Z" fill="url(#paint1_linear_861_2979)" style="mix-blend-mode:overlay"/>
<path d="M4.65922 42.22L27.2864 76.435C28.0067 77.5309 28.9846 78.4299 30.1328 79.0519C31.2811 79.674 32.5641 79.9997 33.8674 80L107.071 80C109.174 80 111.191 79.1571 112.678 77.6569C114.165 76.1566 115 74.1217 115 72L115 8C115 5.87827 114.165 3.84344 112.678 2.34315C111.191 0.842856 109.174 0 107.071 0L33.8674 0C32.565 0.00243292 31.2833 0.328508 30.1355 0.949409C28.9877 1.57031 28.0092 2.46692 27.2864 3.56L4.67408 37.78C4.23722 38.4358 4.00267 39.2075 4.00002 39.9977C3.99738 40.7879 4.22676 41.5612 4.65922 42.22Z" fill="#CDC9C2" style="mix-blend-mode:color"/>
<path d="M27.7042 76.1604L27.7034 76.1592L5.07721 41.9456C5.0771 41.9454 5.07699 41.9453 5.07687 41.9451C4.6986 41.3686 4.4977 40.6916 4.50002 39.9994C4.50234 39.307 4.70788 38.6312 5.09022 38.0572L5.09123 38.0556L27.7034 3.83578C27.7035 3.83574 27.7035 3.83569 27.7035 3.83565C28.3812 2.81089 29.2983 1.97079 30.3734 1.38919C31.4486 0.807579 32.6489 0.502274 33.8683 0.5L107.071 0.5C109.04 0.5 110.929 1.28909 112.323 2.69512C113.716 4.1013 114.5 6.00945 114.5 8L114.5 72C114.5 73.9906 113.716 75.8987 112.323 77.3049C110.929 78.7109 109.04 79.5 107.071 79.5L33.8675 79.5C33.8674 79.5 33.8674 79.5 33.8674 79.5C32.6474 79.4997 31.4463 79.1948 30.371 78.6123C29.2956 78.0298 28.3794 77.1876 27.7042 76.1604Z" stroke="white"/>
</g>
<defs>
<filter id="filter0_d_861_2979" x="0" y="0" width="119" height="88" filterUnits="userSpaceOnUse" color-interpolation-filters="sRGB">
<feFlood flood-opacity="0" result="BackgroundImageFix"/>
<feColorMatrix in="SourceAlpha" type="matrix" values="0 0 0 0 0 0 0 0 0 0 0 0 0 0 0 0 0 0 127 0" result="hardAlpha"/>
<feOffset dy="4"/>
<feGaussianBlur stdDeviation="2"/>
<feComposite in2="hardAlpha" operator="out"/>
<feColorMatrix type="matrix" values="0 0 0 0 0 0 0 0 0 0 0 0 0 0 0 0 0 0 0.25 0"/>
<feBlend mode="normal" in2="BackgroundImageFix" result="effect1_dropShadow_861_2979"/>
<feBlend mode="normal" in="SourceGraphic" in2="effect1_dropShadow_861_2979" result="shape"/>
</filter>
<linearGradient id="paint0_linear_861_2979" x1="90.5" y1="19" x2="43.1088" y2="64.4721" gradientUnits="userSpaceOnUse">
<stop stop-color="#576265"/>
<stop offset="0.172016" stop-color="#9EA1A1"/>
<stop offset="0.45741" stop-color="#848B8A"/>
<stop offset="0.553567" stop-color="#576265"/>
<stop offset="0.823421" stop-color="#576265"/>
<stop offset="0.925155" stop-color="#757A7B"/>
<stop offset="1" stop-color="#576265"/>
</linearGradient>
<linearGradient id="paint1_linear_861_2979" x1="70.6895" y1="40" x2="82.9437" y2="84.3722" gradientUnits="userSpaceOnUse">
<stop stop-color="white" stop-opacity="0"/>
<stop offset="1" stop-color="white"/>
</linearGradient>
</defs>
</svg>
