<svg width="111" height="80" viewBox="0 0 111 80" fill="none" xmlns="http://www.w3.org/2000/svg">
<path d="M0.659218 42.22L23.2864 76.435C24.0067 77.5309 24.9846 78.4299 26.1328 79.0519C27.2811 79.674 28.5641 79.9997 29.8674 80L103.071 80C105.174 80 107.191 79.1571 108.678 77.6569C110.165 76.1566 111 74.1217 111 72L111 8C111 5.87827 110.165 3.84344 108.678 2.34315C107.191 0.842856 105.174 0 103.071 0L29.8674 0C28.565 0.00243292 27.2833 0.328508 26.1355 0.949409C24.9877 1.57031 24.0092 2.46692 23.2864 3.56L0.67408 37.78C0.237217 38.4358 0.00266873 39.2075 2.28882e-05 39.9977C-0.00262296 40.7879 0.226757 41.5612 0.659218 42.22Z" fill="white"/>
</svg>
