<svg width="48" height="48" viewBox="0 0 48 48" fill="none" xmlns="http://www.w3.org/2000/svg">
<path d="M24 4C21.3735 4 18.7728 4.51732 16.3463 5.52241C13.9198 6.5275 11.715 8.00069 9.85784 9.85786C6.10711 13.6086 3.99998 18.6957 3.99998 24C3.98249 28.6183 5.58156 33.0971 8.51998 36.66L4.51998 40.66C4.24246 40.9412 4.05447 41.2984 3.97972 41.6864C3.90497 42.0743 3.94682 42.4758 4.09998 42.84C4.26609 43.1999 4.53538 43.5022 4.87367 43.7088C5.21196 43.9153 5.60398 44.0167 5.99998 44H24C29.3043 44 34.3914 41.8929 38.1421 38.1421C41.8928 34.3914 44 29.3043 44 24C44 18.6957 41.8928 13.6086 38.1421 9.85786C34.3914 6.10714 29.3043 4 24 4ZM24 40H10.82L12.68 38.14C13.0525 37.7653 13.2616 37.2584 13.2616 36.73C13.2616 36.2016 13.0525 35.6947 12.68 35.32C10.0611 32.7041 8.43032 29.2611 8.06536 25.5776C7.70039 21.8941 8.62386 18.198 10.6784 15.119C12.733 12.0401 15.7916 9.76872 19.333 8.69195C22.8745 7.61517 26.6797 7.79961 30.1004 9.21383C33.5211 10.628 36.3457 13.1845 38.0929 16.4478C39.84 19.711 40.4017 23.4791 39.6822 27.11C38.9627 30.7409 37.0066 34.0101 34.1471 36.3605C31.2875 38.7109 27.7015 39.9971 24 40Z" fill="black"/>
</svg>
