<svg width="40" height="40" viewBox="0 0 40 40" fill="none" xmlns="http://www.w3.org/2000/svg">
<path d="M34 22C33.4696 22 32.9609 22.2107 32.5858 22.5858C32.2107 22.9609 32 23.4696 32 24V24.78L29.04 21.82C28.5251 21.3018 27.9128 20.8905 27.2383 20.6098C26.5639 20.3292 25.8405 20.1847 25.11 20.1847C24.3795 20.1847 23.6561 20.3292 22.9817 20.6098C22.3072 20.8905 21.6949 21.3018 21.18 21.82L19.78 23.22L14.82 18.24C13.7579 17.2357 12.3517 16.6761 10.89 16.6761C9.4283 16.6761 8.02207 17.2357 6.96 18.24L4 21.2V10C4 9.46957 4.21071 8.96086 4.58579 8.58579C4.96086 8.21072 5.46957 8 6 8H22C22.5304 8 23.0391 7.78929 23.4142 7.41421C23.7893 7.03914 24 6.53043 24 6C24 5.46957 23.7893 4.96086 23.4142 4.58579C23.0391 4.21072 22.5304 4 22 4H6C4.4087 4 2.88258 4.63214 1.75736 5.75736C0.632141 6.88258 0 8.4087 0 10V34C0 35.5913 0.632141 37.1174 1.75736 38.2426C2.88258 39.3679 4.4087 40 6 40H30C31.5913 40 33.1174 39.3679 34.2426 38.2426C35.3679 37.1174 36 35.5913 36 34V24C36 23.4696 35.7893 22.9609 35.4142 22.5858C35.0391 22.2107 34.5304 22 34 22ZM6 36C5.46957 36 4.96086 35.7893 4.58579 35.4142C4.21071 35.0391 4 34.5304 4 34V26.86L9.8 21.06C10.0938 20.78 10.4841 20.6238 10.89 20.6238C11.2959 20.6238 11.6862 20.78 11.98 21.06L18.32 27.4L26.9 36H6ZM32 34C31.9833 34.3804 31.8585 34.7481 31.64 35.06L22.62 26L24.02 24.6C24.3123 24.3093 24.7078 24.1462 25.12 24.1462C25.5322 24.1462 25.9277 24.3093 26.22 24.6L32 30.44V34ZM34 1.23356e-06C32.9461 -0.000674451 31.9107 0.276243 30.9978 0.802886C30.085 1.32953 29.3269 2.08732 28.8 3C28.6678 3.22827 28.582 3.48044 28.5476 3.742C28.5133 4.00356 28.531 4.26933 28.5998 4.52401C28.6685 4.77869 28.787 5.01725 28.9484 5.22594C29.1098 5.43463 29.3108 5.60934 29.54 5.74C29.9992 6.00075 30.543 6.06928 31.0525 5.93064C31.5621 5.79201 31.9962 5.45746 32.26 5C32.4783 4.61472 32.8184 4.31279 33.2268 4.14156C33.6352 3.97034 34.0888 3.9395 34.5167 4.05389C34.9445 4.16828 35.3222 4.42143 35.5907 4.77363C35.8591 5.12583 36.0031 5.55717 36 6C36 6.53043 35.7893 7.03914 35.4142 7.41421C35.0391 7.78929 34.5304 8 34 8C33.4696 8 32.9609 8.21072 32.5858 8.58579C32.2107 8.96086 32 9.46957 32 10C32 10.5304 32.2107 11.0391 32.5858 11.4142C32.9609 11.7893 33.4696 12 34 12C35.5913 12 37.1174 11.3679 38.2426 10.2426C39.3679 9.11742 40 7.5913 40 6C40 4.4087 39.3679 2.88258 38.2426 1.75736C37.1174 0.632142 35.5913 1.23356e-06 34 1.23356e-06ZM34.76 14.16C34.398 13.9921 33.994 13.9364 33.6 14L33.24 14.12L32.88 14.3L32.58 14.56C32.3922 14.7493 32.2442 14.9741 32.1446 15.2214C32.045 15.4687 31.9958 15.7334 32 16C31.9985 16.2632 32.0489 16.5241 32.1485 16.7678C32.248 17.0115 32.3946 17.2331 32.58 17.42C32.7659 17.6075 32.9871 17.7562 33.2308 17.8578C33.4746 17.9593 33.736 18.0116 34 18.0116C34.264 18.0116 34.5254 17.9593 34.7692 17.8578C35.0129 17.7562 35.2341 17.6075 35.42 17.42C35.6054 17.2331 35.752 17.0115 35.8515 16.7678C35.9511 16.5241 36.0015 16.2632 36 16C35.998 15.6052 35.8792 15.2197 35.6586 14.8923C35.4379 14.5648 35.1252 14.31 34.76 14.16Z" fill="#FFFEFC"/>
</svg>
