<svg width="83" height="53" viewBox="0 0 83 53" fill="none" xmlns="http://www.w3.org/2000/svg">
<g filter="url(#filter0_d_508_2825)">
<rect x="22.9258" y="45" width="45" height="56.0744" transform="rotate(-90 22.9258 45)" fill="#FDFBF3"/>
<path d="M9 45C6.23858 45 4 42.7614 4 40L4 5C4 2.23857 6.23857 -9.78513e-08 9 -2.18557e-07L22.9251 -8.27243e-07L22.9251 45L9 45Z" fill="url(#paint0_linear_508_2825)"/>
<rect x="26.4297" y="41.25" width="7.5" height="49.0651" transform="rotate(-90 26.4297 41.25)" fill="#F66F00"/>
<rect x="26.4297" y="11.25" width="7.5" height="49.0651" transform="rotate(-90 26.4297 11.25)" fill="#F66F00"/>
<path d="M31.2166 19.46C31.8186 19.46 32.2806 19.054 32.2806 18.452C32.2806 17.85 31.8186 17.444 31.2166 17.444C30.6146 17.444 30.1526 17.85 30.1526 18.452C30.1526 19.054 30.6146 19.46 31.2166 19.46ZM29.5786 31.192C31.2866 31.192 32.1266 30.1 32.1266 28.21L32.1266 20.93C32.1266 20.818 32.0566 20.748 31.9446 20.748L30.4886 20.748C30.3766 20.748 30.3066 20.818 30.3066 20.93L30.3066 28.364C30.3066 29.19 30.0546 29.54 29.5226 29.54C29.1586 29.54 28.9906 29.428 28.8786 29.204C28.8226 29.106 28.7386 29.064 28.6406 29.106L27.4926 29.54C27.3806 29.582 27.3386 29.652 27.3806 29.764C27.7726 30.716 28.5566 31.192 29.5786 31.192ZM36.6153 28.14C37.5393 28.14 38.4493 27.762 38.9813 26.992L39.0233 27.818C39.0233 27.944 39.1073 28 39.2193 28L40.5353 28C40.6473 28 40.7173 27.93 40.7173 27.818L40.7173 20.93C40.7173 20.818 40.6473 20.748 40.5353 20.748L39.0793 20.748C38.9673 20.748 38.8973 20.818 38.8973 20.93L38.8973 24.444C38.8973 25.83 38.0573 26.488 37.1753 26.488C36.2233 26.488 35.7893 25.928 35.7893 24.724L35.7893 20.93C35.7893 20.818 35.7193 20.748 35.6073 20.748L34.1513 20.748C34.0393 20.748 33.9693 20.818 33.9693 20.93L33.9693 25.466C33.9693 27.132 34.9353 28.14 36.6153 28.14ZM44.2629 28C44.3749 28 44.4449 27.93 44.4449 27.818L44.4449 24.304C44.4449 22.918 45.2429 22.26 46.0969 22.26C46.9369 22.26 47.3849 22.82 47.3849 24.024L47.3849 27.818C47.3849 27.93 47.4549 28 47.5669 28L49.0229 28C49.1349 28 49.2049 27.93 49.2049 27.818L49.2049 24.304C49.2049 22.918 50.0029 22.26 50.8569 22.26C51.6969 22.26 52.1449 22.82 52.1449 24.024L52.1449 27.818C52.1449 27.93 52.2149 28 52.3269 28L53.7829 28C53.8949 28 53.9649 27.93 53.9649 27.818L53.9649 23.282C53.9649 21.616 52.9989 20.608 51.4169 20.608C50.4229 20.608 49.4709 21.056 48.9389 21.938C48.5469 21.084 47.7489 20.608 46.6569 20.608C45.7609 20.608 44.8789 21.014 44.3609 21.798L44.3189 20.93C44.3189 20.804 44.2349 20.748 44.1229 20.748L42.8069 20.748C42.6949 20.748 42.6249 20.818 42.6249 20.93L42.6249 27.818C42.6249 27.93 42.6949 28 42.8069 28L44.2629 28ZM59.9203 28.14C61.9923 28.14 63.3083 26.6 63.3083 24.374C63.3083 22.148 61.9923 20.608 59.9203 20.608C58.9683 20.608 58.1703 20.986 57.6383 21.63L57.6383 17.682C57.6383 17.57 57.5683 17.5 57.4563 17.5L56.0003 17.5C55.8883 17.5 55.8183 17.57 55.8183 17.682L55.8183 27.818C55.8183 27.93 55.8883 28 56.0003 28L57.3163 28C57.4283 28 57.5123 27.944 57.5123 27.818L57.5543 27.006C58.0723 27.72 58.9123 28.14 59.9203 28.14ZM59.4723 26.488C58.3103 26.488 57.5123 25.62 57.5123 24.374C57.5123 23.128 58.3103 22.26 59.4723 22.26C60.6343 22.26 61.4323 23.128 61.4323 24.374C61.4323 25.62 60.6343 26.488 59.4723 26.488ZM68.2031 28.14C70.5271 28.14 72.0391 26.572 72.0391 24.374C72.0391 22.176 70.5271 20.608 68.2031 20.608C65.8791 20.608 64.3671 22.176 64.3671 24.374C64.3671 26.572 65.8791 28.14 68.2031 28.14ZM68.2031 26.488C67.0411 26.488 66.2431 25.62 66.2431 24.374C66.2431 23.128 67.0411 22.26 68.2031 22.26C69.3651 22.26 70.1631 23.128 70.1631 24.374C70.1631 25.62 69.3651 26.488 68.2031 26.488Z" fill="black"/>
</g>
<defs>
<filter id="filter0_d_508_2825" x="0" y="0" width="83" height="53" filterUnits="userSpaceOnUse" color-interpolation-filters="sRGB">
<feFlood flood-opacity="0" result="BackgroundImageFix"/>
<feColorMatrix in="SourceAlpha" type="matrix" values="0 0 0 0 0 0 0 0 0 0 0 0 0 0 0 0 0 0 127 0" result="hardAlpha"/>
<feOffset dy="4"/>
<feGaussianBlur stdDeviation="2"/>
<feComposite in2="hardAlpha" operator="out"/>
<feColorMatrix type="matrix" values="0 0 0 0 0 0 0 0 0 0 0 0 0 0 0 0 0 0 0.25 0"/>
<feBlend mode="normal" in2="BackgroundImageFix" result="effect1_dropShadow_508_2825"/>
<feBlend mode="normal" in="SourceGraphic" in2="effect1_dropShadow_508_2825" result="shape"/>
</filter>
<linearGradient id="paint0_linear_508_2825" x1="13.813" y1="45" x2="13.813" y2="-2.01284e-07" gradientUnits="userSpaceOnUse">
<stop stop-color="#FFE7EE"/>
<stop offset="1" stop-color="#B3B3B3"/>
</linearGradient>
</defs>
</svg>
