<svg width="48" height="48" viewBox="0 0 48 48" fill="none" xmlns="http://www.w3.org/2000/svg">
<path d="M12 38C16.4183 38 20 34.4183 20 30C20 25.5817 16.4183 22 12 22C7.58172 22 4 25.5817 4 30C4 34.4183 7.58172 38 12 38Z" stroke="black" stroke-width="4" stroke-linecap="round" stroke-linejoin="round"/>
<path d="M36 38C40.4183 38 44 34.4183 44 30C44 25.5817 40.4183 22 36 22C31.5817 22 28 25.5817 28 30C28 34.4183 31.5817 38 36 38Z" stroke="black" stroke-width="4" stroke-linecap="round" stroke-linejoin="round"/>
<path d="M28 30C28 28.9391 27.5786 27.9217 26.8284 27.1716C26.0783 26.4214 25.0609 26 24 26C22.9391 26 21.9217 26.4214 21.1716 27.1716C20.4214 27.9217 20 28.9391 20 30M5 26L10 14C11.4 11.4 12.8 10 16 10M43 26L38 14C36.6 11.4 35 10 32 10" stroke="black" stroke-width="4" stroke-linecap="round" stroke-linejoin="round"/>
</svg>
