<svg width="48" height="44" viewBox="0 0 48 44" fill="none" xmlns="http://www.w3.org/2000/svg">
<g filter="url(#filter0_d_388_3811)">
<path d="M18 40C16.8 40 16 39.2 16 38V32H8C5.8 32 4 30.2 4 28V4C4 1.8 5.8 0 8 0H40C42.2 0 44 1.8 44 4V28C44 30.2 42.2 32 40 32H27.8L20.4 39.4C20 39.8 19.6 40 19 40H18ZM20 28V34.2L26.2 28H40V4H8V28H20ZM32.6 8L29.8 14H34V22H26V13.6L28.6 8H32.6ZM20.6 8L17.8 14H22V22H14V13.6L16.6 8H20.6Z" fill="#F66F00"/>
</g>
<defs>
<filter id="filter0_d_388_3811" x="0" y="0" width="48" height="48" filterUnits="userSpaceOnUse" color-interpolation-filters="sRGB">
<feFlood flood-opacity="0" result="BackgroundImageFix"/>
<feColorMatrix in="SourceAlpha" type="matrix" values="0 0 0 0 0 0 0 0 0 0 0 0 0 0 0 0 0 0 127 0" result="hardAlpha"/>
<feOffset dy="4"/>
<feGaussianBlur stdDeviation="2"/>
<feComposite in2="hardAlpha" operator="out"/>
<feColorMatrix type="matrix" values="0 0 0 0 0 0 0 0 0 0 0 0 0 0 0 0 0 0 0.25 0"/>
<feBlend mode="normal" in2="BackgroundImageFix" result="effect1_dropShadow_388_3811"/>
<feBlend mode="normal" in="SourceGraphic" in2="effect1_dropShadow_388_3811" result="shape"/>
</filter>
</defs>
</svg>
