<svg width="54" height="51" viewBox="0 0 54 51" fill="none" xmlns="http://www.w3.org/2000/svg">
<g clip-path="url(#clip0_98_1280)">
<g filter="url(#filter0_d_98_1280)">
<path d="M18.6207 13.033C18.8536 12.8674 19.1186 12.7469 19.4006 12.6784C19.6826 12.6099 19.9761 12.5947 20.2643 12.6337C20.5525 12.6728 20.8297 12.7653 21.0802 12.9059C21.3307 13.0466 21.5495 13.2326 21.7242 13.4535C21.8988 13.6743 22.0259 13.9256 22.0982 14.193C22.1704 14.4604 22.1864 14.7387 22.1453 15.012C22.1041 15.2853 22.0066 15.5482 21.8582 15.7857C21.7099 16.0233 21.5137 16.2308 21.2808 16.3964C17.8138 18.8622 15.8276 21.2607 14.6904 23.3544C16.2519 22.9732 17.8997 23.0628 19.4049 23.6107C20.9102 24.1586 22.198 25.1376 23.0894 26.4116C23.9809 27.6855 24.4317 29.1912 24.3791 30.7194C24.3265 32.2475 23.7732 33.7221 22.7961 34.9383C21.819 36.1544 20.4666 37.0517 18.9269 37.5054C17.3872 37.9591 15.7367 37.9466 14.2048 37.4698C12.6729 36.9929 11.3357 36.0754 10.3791 34.8446C9.42249 33.6139 8.89399 32.1311 8.86704 30.6024C8.58299 28.0209 8.96961 25.4126 9.99315 23.0054C11.3165 19.8396 13.9035 16.388 18.6207 13.033ZM38.5715 13.033C38.8044 12.8674 39.0694 12.7469 39.3514 12.6784C39.6334 12.6099 39.9268 12.5947 40.215 12.6337C40.5032 12.6728 40.7805 12.7653 41.0309 12.9059C41.2814 13.0466 41.5003 13.2326 41.6749 13.4535C41.8496 13.6743 41.9767 13.9256 42.0489 14.193C42.1212 14.4604 42.1372 14.7387 42.096 15.012C42.0548 15.2853 41.9573 15.5482 41.809 15.7857C41.6607 16.0233 41.4645 16.2308 41.2316 16.3964C37.7646 18.8622 35.7784 21.2607 34.6412 23.3544C36.2026 22.9732 37.8504 23.0628 39.3557 23.6107C40.8609 24.1586 42.1487 25.1376 43.0402 26.4116C43.9316 27.6855 44.3824 29.1912 44.3298 30.7194C44.2772 32.2475 43.7239 33.7221 42.7468 34.9383C41.7697 36.1544 40.4173 37.0517 38.8776 37.5054C37.3379 37.9591 35.6874 37.9466 34.1555 37.4698C32.6236 36.9929 31.2864 36.0754 30.3298 34.8446C29.3732 33.6139 28.8447 32.1311 28.8178 30.6024C28.5337 28.0209 28.9204 25.4126 29.9439 23.0054C31.2695 19.8396 33.8542 16.388 38.5715 13.033Z" fill="black"/>
</g>
</g>
<defs>
<filter id="filter0_d_98_1280" x="4.77649" y="12.6126" width="43.5575" height="33.2242" filterUnits="userSpaceOnUse" color-interpolation-filters="sRGB">
<feFlood flood-opacity="0" result="BackgroundImageFix"/>
<feColorMatrix in="SourceAlpha" type="matrix" values="0 0 0 0 0 0 0 0 0 0 0 0 0 0 0 0 0 0 127 0" result="hardAlpha"/>
<feOffset dy="4"/>
<feGaussianBlur stdDeviation="2"/>
<feComposite in2="hardAlpha" operator="out"/>
<feColorMatrix type="matrix" values="0 0 0 0 0 0 0 0 0 0 0 0 0 0 0 0 0 0 0.25 0"/>
<feBlend mode="normal" in2="BackgroundImageFix" result="effect1_dropShadow_98_1280"/>
<feBlend mode="normal" in="SourceGraphic" in2="effect1_dropShadow_98_1280" result="shape"/>
</filter>
<clipPath id="clip0_98_1280">
<rect width="53.202" height="50.4505" fill="white"/>
</clipPath>
</defs>
</svg>
