<svg width="54" height="51" viewBox="0 0 54 51" fill="none" xmlns="http://www.w3.org/2000/svg">
<g clip-path="url(#clip0_98_1276)">
<g filter="url(#filter0_d_98_1276)">
<path d="M36.5764 12.6126C38.612 12.6123 40.5662 13.3707 42.0176 14.7242C43.469 16.0778 44.3013 17.918 44.335 19.848C44.5345 21.6664 44.5057 24.3486 43.2089 27.445C41.8833 30.6108 39.2986 34.0625 34.5813 37.4174C34.3485 37.583 34.0834 37.7036 33.8014 37.7721C33.5194 37.8406 33.226 37.8558 32.9378 37.8167C32.3558 37.7379 31.8306 37.443 31.4779 36.997C31.1251 36.551 30.9737 35.9904 31.0568 35.4385C31.14 34.8865 31.4509 34.3886 31.9212 34.0541C35.3882 31.5883 37.3744 29.1919 38.5116 27.0961C37.4455 27.3557 36.3332 27.3973 35.2488 27.2179C34.1644 27.0386 33.1327 26.6425 32.2221 26.056C31.3116 25.4694 30.5431 24.7058 29.9677 23.816C29.3922 22.9261 29.0231 21.9303 28.8847 20.8948C28.7463 19.8592 28.8419 18.8076 29.1651 17.8098C29.4883 16.8119 30.0317 15.8908 30.7592 15.1074C31.4868 14.324 32.3817 13.6964 33.3847 13.2663C34.3876 12.8362 35.4756 12.6133 36.5764 12.6126ZM16.6257 12.6126C18.6613 12.6123 20.6155 13.3707 22.0669 14.7242C23.5183 16.0778 24.3506 17.918 24.3843 19.848C24.5838 21.6664 24.555 24.3486 23.2582 27.445C21.9348 30.6108 19.3478 34.0625 14.6306 37.4174C14.3977 37.583 14.1327 37.7036 13.8507 37.7721C13.5687 37.8406 13.2752 37.8558 12.9871 37.8167C12.405 37.7379 11.8799 37.443 11.5272 36.997C11.1744 36.551 11.0229 35.9904 11.1061 35.4385C11.1892 34.8865 11.5002 34.3886 11.9705 34.0541C15.4375 31.5883 17.4237 29.1919 18.5609 27.0961C17.4947 27.3557 16.3825 27.3973 15.2981 27.2179C14.2137 27.0386 13.182 26.6425 12.2714 26.056C11.3609 25.4694 10.5923 24.7058 10.0169 23.816C9.4415 22.9261 9.07234 21.9303 8.93398 20.8948C8.79561 19.8592 8.8912 18.8076 9.21439 17.8098C9.53759 16.8119 10.081 15.8908 10.8085 15.1074C11.536 14.324 12.431 13.6964 13.4339 13.2663C14.4369 12.8362 15.5249 12.6133 16.6257 12.6126Z" fill="black"/>
</g>
</g>
<defs>
<filter id="filter0_d_98_1276" x="4.87244" y="12.6126" width="43.5538" height="33.2252" filterUnits="userSpaceOnUse" color-interpolation-filters="sRGB">
<feFlood flood-opacity="0" result="BackgroundImageFix"/>
<feColorMatrix in="SourceAlpha" type="matrix" values="0 0 0 0 0 0 0 0 0 0 0 0 0 0 0 0 0 0 127 0" result="hardAlpha"/>
<feOffset dy="4"/>
<feGaussianBlur stdDeviation="2"/>
<feComposite in2="hardAlpha" operator="out"/>
<feColorMatrix type="matrix" values="0 0 0 0 0 0 0 0 0 0 0 0 0 0 0 0 0 0 0.25 0"/>
<feBlend mode="normal" in2="BackgroundImageFix" result="effect1_dropShadow_98_1276"/>
<feBlend mode="normal" in="SourceGraphic" in2="effect1_dropShadow_98_1276" result="shape"/>
</filter>
<clipPath id="clip0_98_1276">
<rect width="53.202" height="50.4505" fill="white"/>
</clipPath>
</defs>
</svg>
