<svg width="54" height="54" viewBox="0 0 54 54" fill="none" xmlns="http://www.w3.org/2000/svg">
<path d="M21.6667 13.6663V18.9997H27V40.333H32.3333V13.6663H21.6667ZM27 0.333008C30.5019 0.333008 33.9696 1.02276 37.2049 2.36289C40.4403 3.70301 43.38 5.66726 45.8562 8.14349C48.3324 10.6197 50.2967 13.5594 51.6368 16.7948C52.9769 20.0301 53.6667 23.4978 53.6667 26.9997C53.6667 34.0721 50.8572 40.8549 45.8562 45.8559C40.8552 50.8568 34.0724 53.6663 27 53.6663C23.4981 53.6663 20.0305 52.9766 16.7951 51.6365C13.5598 50.2963 10.6201 48.3321 8.14383 45.8559C3.14286 40.8549 0.333344 34.0721 0.333344 26.9997C0.333344 19.9272 3.14286 13.1445 8.14383 8.14349C13.1448 3.14252 19.9276 0.333008 27 0.333008Z" fill="black"/>
</svg>
