<svg width="128" height="50" viewBox="0 0 128 50" fill="none" xmlns="http://www.w3.org/2000/svg">
<path d="M4 0L0 0L0 50H4L4 0Z" fill="black"/>
<path d="M8 0L6 0L6 50H8L8 0Z" fill="black"/>
<path d="M14 0L12 0L12 50H14L14 0Z" fill="black"/>
<path d="M26 0L22 0L22 50H26L26 0Z" fill="black"/>
<path d="M36 0L34 0L34 50H36L36 0Z" fill="black"/>
<path d="M40 0L38 0L38 50H40L40 0Z" fill="black"/>
<path d="M46 0L44 0L44 50H46L46 0Z" fill="black"/>
<path d="M52 0L48 0L48 50H52L52 0Z" fill="black"/>
<path d="M58 0L56 0L56 50H58L58 0Z" fill="black"/>
<path d="M74 0L66 0L66 50H74L74 0Z" fill="black"/>
<path d="M80 0L78 0L78 50H80L80 0Z" fill="black"/>
<path d="M86 0L84 0L84 50H86L86 0Z" fill="black"/>
<path d="M90 0L88 0L88 50H90L90 0Z" fill="black"/>
<path d="M102 0L94 0L94 50H102L102 0Z" fill="black"/>
<path d="M106 0L104 0L104 50H106L106 0Z" fill="black"/>
<path d="M114 0L110 0L110 50H114L114 0Z" fill="black"/>
<path d="M124 0L122 0L122 50H124L124 0Z" fill="black"/>
<path d="M128 0L126 0L126 50H128L128 0Z" fill="black"/>
</svg>
