<svg width="24" height="24" viewBox="0 0 24 24" fill="none" xmlns="http://www.w3.org/2000/svg">
<path fill-rule="evenodd" clip-rule="evenodd" d="M14.5467 20.3862C14.9967 20.5931 15.4589 20.7726 15.9307 20.9235C18.1947 21.6382 19.6854 21.2835 20.4854 20.4835C21.2854 19.6849 21.64 18.1929 20.9254 15.9302C20.7744 15.4574 20.5945 14.9943 20.3867 14.5435C19.5487 15.6421 18.6368 16.6823 17.6574 17.6569C16.6833 18.6359 15.6436 19.5474 14.5454 20.3849L14.5467 20.3862ZM12 18.9329C13.3534 17.9987 14.6162 16.9399 15.772 15.7702C16.9407 14.6147 17.9987 13.3523 18.932 11.9995C17.9988 10.6463 16.9408 9.38344 15.772 8.22753C14.6161 7.05879 13.3532 6.00084 12 5.06753C10.6473 6.00089 9.3849 7.05883 8.22937 8.22753C7.05969 9.38335 6.00084 10.6462 5.06671 11.9995C6.00009 13.3523 7.05804 14.6146 8.22671 15.7702C9.51071 17.0542 10.7814 18.1035 12 18.9329ZM3.61337 14.5449C4.40004 15.5822 5.31204 16.6249 6.34404 17.6569C7.31769 18.6359 8.35699 19.5473 9.45471 20.3849C9.00437 20.5926 8.54172 20.7724 8.06937 20.9235C5.80671 21.6382 4.31471 21.2835 3.51471 20.4849C2.71471 19.6849 2.36137 18.1942 3.07604 15.9302C3.21604 15.4862 3.39604 15.0235 3.61471 14.5435L3.61337 14.5449ZM1.92671 11.9995C1.31871 13.0702 0.853374 14.1195 0.534707 15.1262C-0.325293 17.8502 -0.171959 20.5662 1.63071 22.3702C3.43471 24.1742 6.15071 24.3275 8.87471 23.4662C9.96231 23.1128 11.0098 22.6462 12 22.0742C13.0707 22.6822 14.12 23.1475 15.1267 23.4662C17.852 24.3262 20.5667 24.1729 22.3707 22.3702C24.1747 20.5662 24.328 17.8502 23.4667 15.1262C23.1133 14.0382 22.6468 12.9902 22.0747 11.9995C22.6827 10.9289 23.148 9.87953 23.4667 8.87286C24.328 6.14886 24.1747 3.43286 22.3707 1.62886C20.568 -0.17514 17.8507 -0.328473 15.1267 0.53286C14.0386 0.886175 12.9907 1.35273 12 1.92486C11.0094 1.35273 9.96143 0.886175 8.87337 0.53286C6.14937 -0.328473 3.43337 -0.17514 1.62937 1.62886C-0.174626 3.43286 -0.326626 6.14886 0.533374 8.87286C0.886689 9.96092 1.35325 11.0089 1.92537 11.9995H1.92671ZM3.61604 9.45419C4.40271 8.41686 5.31337 7.37419 6.34537 6.34219C7.31903 5.36319 8.35833 4.45174 9.45604 3.61419C9.00569 3.40654 8.54305 3.22664 8.07071 3.07553C5.80804 2.36086 4.31604 2.71553 3.51604 3.51419C2.71604 4.31419 2.36271 5.80486 3.07737 8.06886C3.21737 8.51286 3.39737 8.97553 3.61604 9.45553V9.45419ZM14.5467 3.61419C14.9971 3.40653 15.4597 3.22664 15.932 3.07553C18.196 2.36086 19.6867 2.71553 20.4867 3.51419C21.2867 4.31419 21.6414 5.80486 20.9267 8.06886C20.7854 8.51286 20.6067 8.97553 20.388 9.45553C19.5502 8.35685 18.6383 7.31665 17.6587 6.34219C16.6846 5.36314 15.6449 4.45169 14.5467 3.61419ZM14 11.9995C14 12.2622 13.9481 12.5222 13.8475 12.7648C13.747 13.0075 13.5996 13.2279 13.4138 13.4135C13.228 13.5992 13.0075 13.7464 12.7648 13.8469C12.5221 13.9473 12.262 13.9989 11.9994 13.9989C11.7367 13.9988 11.4767 13.947 11.2341 13.8464C10.9914 13.7458 10.771 13.5984 10.5854 13.4126C10.3997 13.2268 10.2525 13.0063 10.152 12.7636C10.0516 12.5209 9.99995 12.2608 10 11.9982C10 11.4678 10.2108 10.9591 10.5858 10.584C10.9609 10.2089 11.4696 9.99819 12 9.99819C12.5305 9.99819 13.0392 10.2089 13.4143 10.584C13.7893 10.9591 14 11.4678 14 11.9982V11.9995Z" fill="#FF5E03"/>
</svg>
