<svg width="111" height="112" viewBox="0 0 111 112" fill="none" xmlns="http://www.w3.org/2000/svg">
<path d="M48.727 98.0261C48.8295 98.0434 48.8722 98.1033 48.8549 98.2058L47.6739 105.235L50.3602 105.687C50.4549 105.703 50.4936 105.762 50.4764 105.864L50.2756 107.06C50.2583 107.162 50.2024 107.205 50.1077 107.19L43.1492 106.021C43.0467 106.003 43.004 105.943 43.0212 105.841L43.2221 104.646C43.2393 104.543 43.2992 104.5 43.4017 104.518L46.0763 104.967L47.2573 97.9374C47.2746 97.8349 47.3345 97.7922 47.437 97.8094L48.727 98.0261Z" fill="black"/>
<path d="M42.7218 96.6538C42.8191 96.6905 42.8494 96.7576 42.8126 96.8549L39.81 104.803C39.7732 104.9 39.7062 104.93 39.6089 104.893L34.4002 102.926C34.3029 102.889 34.2726 102.822 34.3094 102.725L34.7377 101.591C34.7745 101.494 34.8415 101.463 34.9388 101.5L38.778 102.95L39.4862 101.076L36.0175 99.7653C35.9202 99.7286 35.8899 99.6616 35.9267 99.5643L36.3466 98.4529C36.3833 98.3557 36.4503 98.3254 36.5476 98.3621L40.0164 99.6725L40.8137 97.5621L36.8398 96.0609C36.7425 96.0241 36.7122 95.9571 36.749 95.8598L37.1773 94.726C37.2141 94.6288 37.2811 94.5985 37.3784 94.6352L42.7218 96.6538Z" fill="black"/>
<path d="M35.9427 93.9543C35.9899 93.9845 36.015 94.0195 36.018 94.0594C36.021 94.0993 35.9973 94.1363 35.947 94.1706L28.404 99.4483C28.3339 99.4985 28.2618 99.4999 28.1877 99.4525L27.2471 98.8519C27.173 98.8045 27.1439 98.7385 27.16 98.6538L28.7766 89.5911C28.7785 89.5734 28.788 89.551 28.8052 89.524C28.844 89.4633 28.9005 89.4567 28.9746 89.504L30.2489 90.3179C30.3231 90.3652 30.3521 90.4313 30.336 90.5159L29.9769 92.2373L33.0615 94.2073L34.4724 93.1577C34.5424 93.1075 34.6145 93.106 34.6887 93.1534L35.9427 93.9543ZM28.9211 97.3011L31.7788 95.1678L29.655 93.8114L28.9211 97.3011Z" fill="black"/>
<path d="M27.5509 88.2446C27.6223 88.3201 27.6203 88.3936 27.5448 88.4651L21.3744 94.3053C21.2988 94.3768 21.2253 94.3748 21.1538 94.2992L20.2052 93.297C20.1447 93.2331 20.1296 93.1648 20.1599 93.0921L21.7424 87.3975L15.994 88.691C15.9142 88.7115 15.8468 88.6927 15.7918 88.6346L14.8679 87.6585C14.7964 87.583 14.7984 87.5094 14.8739 87.438L21.0444 81.5978C21.1199 81.5263 21.1934 81.5283 21.2649 81.6038L22.1228 82.5102C22.1943 82.5857 22.1923 82.6592 22.1168 82.7307L17.794 86.8221L22.7051 85.7263C22.7794 85.7 22.8468 85.7188 22.9073 85.7827L23.4682 86.3754C23.5232 86.4335 23.5383 86.5018 23.5135 86.5803L22.1932 91.3824L26.4724 87.3322C26.5479 87.2607 26.6214 87.2627 26.6929 87.3382L27.5509 88.2446Z" fill="black"/>
<path d="M15.1349 78.2091C15.1049 78.2944 15.0502 78.3562 14.9709 78.3942L14.4298 78.6536C14.3505 78.6917 14.2681 78.6957 14.1827 78.6657L7.87761 76.6187C7.82425 76.5999 7.78719 76.5689 7.76643 76.5256C7.74913 76.4895 7.74612 76.4555 7.75738 76.4235C7.76864 76.3915 7.7887 76.3685 7.81755 76.3547L9.37567 75.6075C9.46944 75.5626 9.55902 75.5551 9.64441 75.5851L14.0003 77.0364L15.5739 72.7418C15.6039 72.6564 15.6658 72.5912 15.7596 72.5462L17.3069 71.8042C17.3358 71.7904 17.3662 71.7891 17.3982 71.8004C17.4302 71.8117 17.4549 71.8353 17.4722 71.8714C17.4929 71.9147 17.4939 71.963 17.4752 72.0163L15.1349 78.2091Z" fill="black"/>
<path d="M14.8931 67.3868C15.1186 68.1793 15.1195 68.8985 14.8958 69.5444C14.6644 70.1925 14.2149 70.7322 13.5475 71.1633C13.5343 71.1754 13.5161 71.1847 13.493 71.1913C13.4315 71.2088 13.3782 71.1824 13.3332 71.112L12.7031 69.9938L12.6784 69.9509C12.6587 69.8816 12.684 69.8245 12.7544 69.7796C13.0876 69.5184 13.3066 69.2356 13.4113 68.9314C13.5061 68.6216 13.4922 68.2512 13.3696 67.8203C13.2469 67.3895 13.0786 67.0756 12.8645 66.8786C12.6482 66.674 12.3862 66.6155 12.0784 66.7031C11.786 66.7863 11.5803 66.9696 11.4614 67.253C11.3325 67.5309 11.2502 67.9286 11.2145 68.4461L11.1626 69.2719C11.0819 70.8586 10.4644 71.8161 9.31023 72.1446C8.85626 72.2738 8.41341 72.2667 7.98169 72.1234C7.54778 71.9724 7.16948 71.71 6.84679 71.336C6.5164 70.9642 6.27565 70.5129 6.12455 69.982C5.91869 69.2587 5.91772 68.5977 6.12162 67.9991C6.31564 67.3949 6.72934 66.8904 7.36272 66.4856C7.37591 66.4735 7.39406 66.4642 7.41714 66.4576C7.47869 66.4401 7.53196 66.4665 7.57695 66.5369L8.26146 67.7145L8.28614 67.7574C8.30585 67.8266 8.28051 67.8837 8.21014 67.9287C7.911 68.1636 7.719 68.4095 7.63412 68.6666C7.54924 68.9236 7.55389 69.2176 7.64805 69.5484C7.75317 69.9178 7.91058 70.1932 8.12029 70.3747C8.32999 70.5563 8.55795 70.612 8.80418 70.5419C9.06579 70.4675 9.26102 70.2913 9.38988 70.0134C9.50884 69.73 9.5818 69.3142 9.60873 68.7659L9.63412 68.1099C9.67236 67.2506 9.84392 66.5821 10.1488 66.1044C10.4438 65.6212 10.9337 65.2822 11.6185 65.0873C12.0802 64.9559 12.5318 64.9646 12.9734 65.1134C13.415 65.2622 13.8043 65.534 14.1413 65.9289C14.4782 66.3237 14.7288 66.8097 14.8931 67.3868Z" fill="black"/>
<path d="M13.6574 62.2589C13.6707 62.362 13.6258 62.4202 13.5226 62.4335L5.09623 63.5188C4.99308 63.5321 4.93486 63.4872 4.92158 63.384L4.75447 62.0867C4.74119 61.9836 4.78612 61.9254 4.88926 61.9121L13.3157 60.8268C13.4188 60.8135 13.477 60.8584 13.4903 60.9616L13.6574 62.2589Z" fill="black"/>
<path d="M13.1466 58.2362C13.1445 58.3002 13.127 58.3436 13.0942 58.3665C13.0537 58.3812 13.006 58.3716 12.9511 58.3377L8.69079 55.4094L4.53824 57.8636C4.48973 57.878 4.46148 57.8851 4.45349 57.8848C4.42151 57.8837 4.39792 57.871 4.38273 57.8464C4.35955 57.8216 4.34863 57.7893 4.34997 57.7493L4.39941 56.2741C4.40183 56.2021 4.43982 56.1434 4.51338 56.0978L7.60999 54.3406L4.6372 52.4039C4.56658 52.3615 4.53261 52.3003 4.53529 52.2204L4.58433 50.7572C4.58647 50.6932 4.6078 50.6539 4.64831 50.6393C4.6811 50.6164 4.72494 50.6218 4.77984 50.6557L8.74673 53.3821L13.2055 50.746C13.2541 50.7316 13.2823 50.7245 13.2903 50.7248C13.3223 50.7259 13.3499 50.7388 13.373 50.7636C13.3882 50.7881 13.3952 50.8204 13.3938 50.8603L13.3444 52.3355C13.342 52.4075 13.304 52.4662 13.2304 52.5118L9.81554 54.4505L13.0937 56.5895C13.1646 56.6239 13.1986 56.6851 13.1956 56.773L13.1466 58.2362Z" fill="black"/>
<path d="M16.2253 41.1054C15.9297 41.9088 15.4922 42.5533 14.9128 43.0392C14.3258 43.5222 13.6474 43.8139 12.8774 43.9142C12.1074 44.0145 11.2944 43.9072 10.4385 43.5923C9.59013 43.2801 8.90662 42.8326 8.38802 42.2497C7.86466 41.6565 7.53981 40.9872 7.41347 40.2417C7.28238 39.4859 7.36187 38.7139 7.65194 37.9256C7.96964 37.0622 8.43557 36.3982 9.04976 35.9337C9.65643 35.4665 10.3637 35.2238 11.1717 35.2056C11.1895 35.2036 11.2134 35.2082 11.2434 35.2192C11.311 35.2441 11.3399 35.2931 11.33 35.3662L11.2245 36.6955L11.2192 36.7447C11.1943 36.8122 11.1439 36.8449 11.0681 36.8425C10.6209 36.8996 10.231 37.0673 9.89841 37.3456C9.56862 37.6164 9.31808 37.9845 9.14681 38.45C8.85674 39.2383 8.8841 39.9516 9.22888 40.5899C9.57367 41.2283 10.174 41.7049 11.0299 42.0198C11.8783 42.3319 12.6407 42.3567 13.317 42.094C13.9885 41.8211 14.468 41.2943 14.7553 40.5134C14.9763 39.9128 15.0112 39.3545 14.8601 38.8386C14.7042 38.3124 14.3622 37.9096 13.8343 37.6301L13.7483 37.5857L12.99 39.6466C12.9541 39.7442 12.8873 39.775 12.7897 39.7391L11.6748 39.3289C11.5772 39.293 11.5463 39.2263 11.5823 39.1287L12.8503 35.6825C12.8862 35.5849 12.953 35.5541 13.0506 35.59L13.9853 35.9339C14.6835 36.1908 15.2552 36.5716 15.7003 37.0764C16.1406 37.5708 16.4121 38.1651 16.5147 38.8592C16.6173 39.5533 16.5209 40.3021 16.2253 41.1054Z" fill="black"/>
<path d="M20.8227 32.3952C20.3518 33.1004 19.7712 33.6314 19.0809 33.9881C18.3883 34.3337 17.6493 34.4751 16.8639 34.4124C16.0763 34.3386 15.3065 34.0507 14.5547 33.5487C13.8029 33.0467 13.2453 32.4484 12.882 31.7536C12.5164 31.0478 12.3639 30.311 12.4244 29.5434C12.4826 28.7647 12.7472 28.0227 13.2182 27.3175C13.6891 26.6122 14.2708 26.0868 14.9634 25.7412C15.6537 25.3845 16.3927 25.2431 17.1803 25.3169C17.9658 25.3796 18.7344 25.6619 19.4862 26.1639C20.238 26.6659 20.7967 27.2698 21.1623 27.9757C21.5256 28.6704 21.6782 29.4071 21.6199 30.1859C21.5594 30.9535 21.2937 31.69 20.8227 32.3952ZM19.5054 31.5156C19.812 31.0565 19.9743 30.5829 19.9924 30.0948C20.015 29.6001 19.9022 29.1351 19.654 28.7001C19.3992 28.2606 19.0322 27.8809 18.5532 27.561C18.0742 27.2412 17.5862 27.05 17.0892 26.9875C16.5856 26.9206 16.1096 26.9923 15.6612 27.2028C15.2173 27.4066 14.842 27.738 14.5355 28.1971C14.2289 28.6561 14.0644 29.133 14.0418 29.6278C14.0237 30.1159 14.1421 30.5797 14.3969 31.0192C14.6451 31.4543 15.0087 31.8317 15.4877 32.1516C15.9667 32.4715 16.4581 32.6648 16.9617 32.7318C17.4587 32.7943 17.9291 32.7236 18.373 32.5198C18.8214 32.3094 19.1989 31.9746 19.5054 31.5156Z" fill="black"/>
<path d="M24.4835 27.396C24.4074 27.4669 24.3339 27.4643 24.263 27.3882L18.4717 21.1719C18.4008 21.0958 18.4034 21.0223 18.4795 20.9514L20.6219 18.9557C21.6814 17.9687 22.751 17.4971 23.8306 17.541C24.9102 17.5849 25.9272 18.119 26.8815 19.1434C27.8358 20.1677 28.2967 21.2199 28.2641 22.2998C28.2315 23.3798 27.6855 24.4132 26.626 25.4002L24.4835 27.396ZM25.4554 24.4079C26.1637 23.748 26.5303 23.0676 26.5551 22.3666C26.5858 21.6602 26.2848 20.9675 25.6522 20.2885C25.0197 19.6095 24.3499 19.2603 23.643 19.2409C22.942 19.2161 22.2374 19.5336 21.5291 20.1934L20.5896 21.0686L24.5159 25.2831L25.4554 24.4079Z" fill="black"/>
<path d="M31.9224 22.554C31.91 22.6092 31.8835 22.6496 31.8429 22.6753C31.8091 22.6966 31.7756 22.7036 31.7425 22.6961C31.7094 22.6886 31.6843 22.6714 31.6672 22.6443L30.7505 21.1937C30.695 21.1058 30.6771 21.0177 30.6971 20.9294L31.6455 16.4549L27.1842 15.3703C27.0959 15.3504 27.024 15.2964 26.9684 15.2085L26.0453 13.7478C26.0282 13.7207 26.0234 13.6906 26.0309 13.6575C26.0383 13.6244 26.059 13.5972 26.0928 13.5758C26.1334 13.5502 26.1813 13.5436 26.2364 13.556L32.6657 15.1716C32.754 15.1915 32.8216 15.2386 32.8686 15.313L33.1892 15.8202C33.2362 15.8946 33.2497 15.976 33.2298 16.0643L31.9224 22.554Z" fill="black"/>
<path d="M39.9391 13.0917C39.8401 13.1235 39.7747 13.0899 39.7429 12.9908L39.3869 11.8826C39.3551 11.7836 39.3887 11.7182 39.4877 11.6864L42.9039 10.5892C43.0029 10.5574 43.0683 10.591 43.1001 10.6901L43.4561 11.7983C43.4879 11.8973 43.4543 11.9627 43.3553 11.9945L39.9391 13.0917Z" fill="black"/>
<path d="M51.6688 14.0836C51.5649 14.087 51.5112 14.0368 51.5077 13.9328L51.2261 5.44148C51.2227 5.33754 51.2729 5.28384 51.3769 5.2804L54.0394 5.19211C55.1828 5.15419 56.0592 5.39328 56.6686 5.90936C57.2778 6.41745 57.5987 7.16323 57.6313 8.14669C57.6639 9.13015 57.3933 9.89954 56.8194 10.4549C56.2452 11.0022 55.3864 11.2948 54.2431 11.3327L53.0437 11.3725L53.1269 13.8791C53.1303 13.9831 53.0801 14.0368 52.9761 14.0402L51.6688 14.0836ZM54.1334 9.83554C55.3807 9.79418 55.9866 9.2378 55.9511 8.16639C55.9341 7.65467 55.7614 7.27618 55.4331 7.03093C55.1048 6.78567 54.6368 6.67312 54.0292 6.69327L52.8898 6.73105L52.994 9.87333L54.1334 9.83554Z" fill="black"/>
<path d="M60.0835 14.1508C59.9809 14.1337 59.9382 14.0738 59.9553 13.9712L61.3571 5.59169C61.3743 5.48911 61.4342 5.4464 61.5367 5.46356L64.1642 5.90307C65.3478 6.10105 66.1728 6.50267 66.6394 7.10793C67.1151 7.70662 67.2691 8.507 67.1015 9.50908C67.0104 10.0535 66.8221 10.5249 66.5364 10.9232C66.26 11.315 65.8863 11.6094 65.4154 11.8064L66.5418 15.0365C66.5497 15.0865 66.553 15.1154 66.5517 15.1233C66.5464 15.1549 66.5299 15.1805 66.5023 15.2002C66.476 15.212 66.4431 15.2146 66.4036 15.208L64.9479 14.9645C64.869 14.9513 64.8157 14.9059 64.7882 14.8283L63.8192 12.0382C63.6022 12.0263 63.3793 12.0011 63.1505 11.9629L61.9669 11.7649L61.5531 14.2385C61.536 14.3411 61.4761 14.3838 61.3735 14.3666L60.0835 14.1508ZM63.3388 10.4735C63.97 10.5791 64.456 10.5347 64.7968 10.3402C65.1389 10.1379 65.3548 9.76845 65.4445 9.23191C65.5343 8.69537 65.4497 8.27972 65.1908 7.98496C64.9332 7.68232 64.4888 7.4782 63.8576 7.37261L62.7332 7.18453L62.2144 10.2854L63.3388 10.4735Z" fill="black"/>
<path d="M71.9176 17.4557C71.1317 17.137 70.4944 16.6756 70.0056 16.0716C69.5273 15.4632 69.2395 14.768 69.1423 13.9861C69.0555 13.1999 69.182 12.3879 69.5218 11.5502C69.8616 10.7125 70.335 10.0455 70.9421 9.5493C71.5596 9.04868 72.2503 8.75046 73.0144 8.65462C73.7889 8.55438 74.569 8.66363 75.3549 8.98238C76.1407 9.30112 76.7728 9.7647 77.2511 10.3731C77.7399 10.9771 78.0277 11.6723 78.1145 12.4586C78.2117 13.2405 78.0904 14.0502 77.7506 14.8879C77.4108 15.7256 76.9322 16.3948 76.3147 16.8954C75.7076 17.3916 75.0169 17.6899 74.2424 17.7901C73.4783 17.8859 72.7034 17.7745 71.9176 17.4557ZM72.513 15.9879C73.0245 16.1954 73.5211 16.2587 74.0029 16.1778C74.492 16.1 74.9246 15.8956 75.3005 15.5646C75.6795 15.2263 75.9773 14.7902 76.1938 14.2565C76.4103 13.7227 76.499 13.2062 76.4598 12.7068C76.4237 12.2001 76.2573 11.7484 75.9606 11.3518C75.6713 10.9582 75.2709 10.6577 74.7594 10.4502C74.2479 10.2427 73.7476 10.1779 73.2584 10.2558C72.7767 10.3366 72.3463 10.5462 71.9674 10.8846C71.5914 11.2155 71.2951 11.6479 71.0786 12.1816C70.8621 12.7154 70.7719 13.2356 70.8081 13.7424C70.8472 14.2417 71.0114 14.6882 71.3007 15.0818C71.5974 15.4784 72.0015 15.7804 72.513 15.9879Z" fill="black"/>
<path d="M78.8543 21.1843C78.3101 20.818 77.9439 20.3592 77.7555 19.8081C77.5717 19.2504 77.59 18.6503 77.8103 18.0078L77.8339 17.9514C77.8696 17.8983 77.9274 17.8841 78.0071 17.9089L79.2201 18.3204L79.2666 18.3373C79.3264 18.3775 79.3416 18.4408 79.3124 18.5272C79.2334 18.802 79.2256 19.0571 79.2889 19.2926C79.3633 19.5259 79.5133 19.7185 79.7389 19.8704C80.1039 20.1161 80.4454 20.1676 80.7633 20.0248C81.0924 19.8798 81.4133 19.5751 81.7261 19.1106L84.0315 15.6863L82.0008 14.3192C81.9145 14.2612 81.9004 14.189 81.9585 14.1027L82.6354 13.0974C82.6935 13.0111 82.7657 12.997 82.8519 13.0551L86.0971 15.2397C86.1833 15.2978 86.1974 15.37 86.1394 15.4563L82.9761 20.1546C81.801 21.8999 80.4271 22.2431 78.8543 21.1843Z" fill="black"/>
<path d="M83.5047 24.459C83.4303 24.3863 83.4296 24.3127 83.5023 24.2384L89.4464 18.168C89.5192 18.0937 89.5927 18.0929 89.667 18.1657L93.6456 22.0611C93.7199 22.1338 93.7207 22.2074 93.6479 22.2817L92.7999 23.1477C92.7272 23.222 92.6536 23.2227 92.5793 23.15L89.6469 20.2788L88.2448 21.7107L90.8943 24.3048C90.9686 24.3776 90.9694 24.4511 90.8966 24.5254L90.0655 25.3742C89.9927 25.4485 89.9192 25.4493 89.8449 25.3765L87.1954 22.7824L85.617 24.3943L88.6523 27.3662C88.7266 27.439 88.7274 27.5125 88.6546 27.5868L87.8067 28.4528C87.7339 28.5271 87.6604 28.5279 87.5861 28.4551L83.5047 24.459Z" fill="black"/>
<path d="M91.0227 33.5511C90.5503 32.8372 90.292 32.1064 90.248 31.3585C90.2039 30.6106 90.3694 29.8968 90.7445 29.2169C91.1306 28.5392 91.704 27.9488 92.4645 27.4455C93.2251 26.9422 93.9938 26.6542 94.7706 26.5814C95.5541 26.5042 96.2837 26.6353 96.9593 26.9749C97.6349 27.3144 98.2023 27.8311 98.6615 28.5249C99.1692 29.2921 99.4284 30.0607 99.4391 30.8307C99.4565 31.5962 99.2333 32.3099 98.7696 32.9717C98.7606 32.9872 98.7428 33.0038 98.7161 33.0214C98.6561 33.0612 98.5995 33.0554 98.5465 33.0042L97.5376 32.1321L97.5011 32.0987C97.4614 32.0387 97.4649 31.9788 97.5117 31.9191C97.7305 31.5249 97.8262 31.1114 97.7988 30.6786C97.7758 30.2526 97.6275 29.8327 97.3538 29.4191C96.8946 28.7253 96.3079 28.3317 95.5938 28.2383C94.8863 28.1404 94.1523 28.3432 93.3917 28.8465C92.6312 29.3498 92.1543 29.9483 91.9611 30.6421C91.779 31.3382 91.9154 32.0298 92.3701 32.717C92.688 33.1973 93.0708 33.5292 93.5183 33.7127C93.9703 33.9028 94.4762 33.9278 95.0358 33.7877C95.1335 33.7614 95.1989 33.7949 95.2318 33.8882L95.6336 35.1476C95.6666 35.2409 95.6431 35.2997 95.5631 35.3238C94.7168 35.596 93.8903 35.5866 93.0836 35.2954C92.2836 34.9998 91.5966 34.4183 91.0227 33.5511Z" fill="black"/>
<path d="M94.9184 40.8288C94.8809 40.7318 94.9107 40.6646 95.0076 40.627L101.656 38.0553L100.673 35.5148C100.638 35.4253 100.669 35.3617 100.766 35.3242L101.897 34.8869C101.994 34.8494 102.059 34.8754 102.094 34.9649L104.64 41.5456C104.678 41.6426 104.648 41.7098 104.551 41.7474L103.42 42.1846C103.323 42.2222 103.256 42.1924 103.219 42.0954L102.24 39.5661L95.5922 42.1379C95.4952 42.1754 95.4279 42.1457 95.3904 42.0487L94.9184 40.8288Z" fill="black"/>
<path d="M103.134 50.8258C103.101 50.5476 103.162 50.307 103.315 50.1038C103.476 49.8997 103.692 49.7818 103.962 49.7503C104.233 49.7187 104.466 49.784 104.662 49.9464C104.866 50.1078 104.984 50.3275 105.017 50.6056C105.049 50.8837 104.985 51.1248 104.824 51.3289C104.67 51.5321 104.458 51.6495 104.188 51.6811C103.918 51.7127 103.681 51.6478 103.477 51.4864C103.28 51.3241 103.166 51.1039 103.134 50.8258ZM98.5806 51.358C98.5481 51.0799 98.6086 50.8392 98.762 50.6361C98.9234 50.4319 99.1392 50.3141 99.4094 50.2825C99.6795 50.2509 99.9127 50.3163 100.109 50.4786C100.313 50.64 100.431 50.8597 100.464 51.1379C100.496 51.416 100.432 51.6571 100.271 51.8612C100.117 52.0644 99.9053 52.1818 99.6351 52.2133C99.3649 52.2449 99.1278 52.18 98.9237 52.0186C98.7275 51.8563 98.6132 51.6361 98.5806 51.358Z" fill="black"/>
<path d="M97.9317 58.8251C97.94 58.7697 97.9618 58.7325 97.997 58.7135C98.0322 58.6945 98.0757 58.7011 98.1275 58.7331L106.02 63.4717C106.095 63.5152 106.125 63.5804 106.112 63.6675L105.947 64.7711C105.934 64.8581 105.885 64.9116 105.801 64.9313L96.866 67.1471C96.849 67.1526 96.8247 67.153 96.793 67.1483C96.7218 67.1376 96.6927 67.0887 96.7058 67.0017L96.93 65.5064C96.943 65.4194 96.9915 65.366 97.0753 65.3462L98.7937 64.9728L99.3364 61.3533L97.8031 60.4924C97.7287 60.4489 97.698 60.3837 97.7111 60.2966L97.9317 58.8251ZM103.848 63.8741L100.736 62.1335L100.363 64.6256L103.848 63.8741Z" fill="black"/>
<path d="M95.8928 68.9797C95.9254 68.881 95.9911 68.8479 96.0898 68.8805L104.158 71.5425C104.257 71.5751 104.29 71.6407 104.257 71.7395L103.847 72.9816C103.815 73.0804 103.749 73.1135 103.65 73.0809L95.5822 70.4189C95.4834 70.3863 95.4503 70.3206 95.4829 70.2219L95.8928 68.9797Z" fill="black"/>
<path d="M92.2437 77.3135C92.2966 77.224 92.3679 77.2057 92.4574 77.2586L99.7699 81.5841C99.8594 81.637 99.8777 81.7082 99.8247 81.7977L99.1587 82.9235C99.1058 83.013 99.0346 83.0313 98.945 82.9784L91.6325 78.6529C91.543 78.6 91.5248 78.5288 91.5777 78.4392L92.2437 77.3135Z" fill="black"/>
<path d="M89.8452 81.344C89.9141 81.2661 89.9875 81.2617 90.0654 81.3306L96.426 86.9631C96.5038 87.0321 96.5083 87.1055 96.4394 87.1833L95.5244 88.2164C95.4661 88.2823 95.3993 88.3033 95.3242 88.2796L89.5122 87.2042L91.3065 92.8162C91.3339 92.8939 91.3211 92.9627 91.268 93.0226L90.377 94.0288C90.308 94.1066 90.2346 94.1111 90.1567 94.0421L83.7961 88.4096C83.7183 88.3407 83.7138 88.2673 83.7828 88.1894L84.6102 87.2552C84.6791 87.1773 84.7525 87.1728 84.8304 87.2418L89.2864 91.1877L87.7627 86.3923C87.73 86.3206 87.7429 86.2518 87.8012 86.1859L88.3422 85.575C88.3953 85.5152 88.462 85.4941 88.5424 85.5119L93.4422 86.4046L89.0311 82.4985C88.9533 82.4295 88.9488 82.3561 89.0178 82.2783L89.8452 81.344Z" fill="black"/>
<path d="M82.5827 89.0214C82.6288 88.9897 82.6709 88.9802 82.7088 88.993C82.7467 89.0058 82.7716 89.0421 82.7835 89.1019L84.6995 98.106C84.7184 98.1901 84.6916 98.257 84.619 98.3068L83.6989 98.9383C83.6264 98.9881 83.5543 98.9891 83.4826 98.9413L75.7688 93.9165C75.7532 93.9078 75.7363 93.8903 75.7182 93.8639C75.6774 93.8046 75.6933 93.75 75.7659 93.7002L77.0125 92.8445C77.085 92.7947 77.1571 92.7938 77.2288 92.8416L78.6737 93.8439L81.6913 91.7727L81.2753 90.0642C81.2565 89.9802 81.2833 89.9132 81.3558 89.8634L82.5827 89.0214ZM82.9242 96.792L82.0751 93.3286L79.9975 94.7546L82.9242 96.792Z" fill="black"/>
<path d="M70.2986 95.7455C71.0955 95.4331 71.868 95.3322 72.616 95.4428C73.3669 95.5609 74.0355 95.8745 74.6218 96.3836C75.2081 96.8927 75.6677 97.5719 76.0006 98.4209C76.3306 99.2625 76.4498 100.071 76.3583 100.846C76.2623 101.631 75.9776 102.318 75.5041 102.908C75.026 103.508 74.396 103.961 73.614 104.267C72.7574 104.603 71.9516 104.696 71.1964 104.545C70.4442 104.402 69.7931 104.034 69.243 103.442C69.2297 103.43 69.2172 103.409 69.2055 103.379C69.1793 103.312 69.1967 103.258 69.2579 103.217L70.3219 102.413L70.3622 102.384C70.4293 102.358 70.4871 102.374 70.5357 102.432C70.8754 102.729 71.2597 102.909 71.6886 102.973C72.11 103.04 72.5516 102.982 73.0134 102.801C73.7955 102.495 74.3107 102.001 74.559 101.319C74.8073 100.637 74.765 99.872 74.4321 99.0229C74.1021 98.1813 73.6144 97.5949 72.9689 97.2636C72.319 96.9427 71.6067 96.9341 70.8321 97.2377C70.2362 97.4713 69.7956 97.8159 69.5102 98.2715C69.2203 98.7375 69.1461 99.2606 69.2877 99.841L69.3116 99.9348L71.3561 99.1332C71.4529 99.0953 71.5203 99.1247 71.5583 99.2215L71.9919 100.328C72.0299 100.424 72.0005 100.492 71.9036 100.53L68.485 101.87C68.3881 101.908 68.3207 101.879 68.2828 101.782L67.9192 100.854C67.6477 100.162 67.5528 99.4814 67.6346 98.8135C67.7119 98.1559 67.976 97.5583 68.4269 97.0206C68.8777 96.483 69.5016 96.058 70.2986 95.7455Z" fill="black"/>
<path d="M64.6247 97.6532C64.7273 97.6364 64.787 97.6793 64.8038 97.782L66.1769 106.166C66.1937 106.269 66.1507 106.329 66.0481 106.345L60.5533 107.245C60.4507 107.262 60.3909 107.219 60.3741 107.116L60.1783 105.92C60.1615 105.818 60.2044 105.758 60.307 105.741L64.3571 105.078L64.0332 103.1L60.3739 103.7C60.2713 103.716 60.2116 103.673 60.1948 103.571L60.0028 102.398C59.986 102.296 60.0289 102.236 60.1315 102.219L63.7908 101.62L63.4262 99.3938L59.234 100.08C59.1314 100.097 59.0717 100.054 59.0549 99.9515L58.859 98.7554C58.8422 98.6528 58.8851 98.593 58.9878 98.5762L64.6247 97.6532Z" fill="black"/>
<path fill-rule="evenodd" clip-rule="evenodd" d="M34.3225 39.6279H51.4136V45.3247H40.0198V51.0215H45.7165H51.4135H51.4137V56.7182H51.4135V62.415H51.4137V68.1118H34.3226V62.415H34.3228L34.3228 56.7182L34.3228 56.7182L34.3226 56.7182V51.0215H34.3228L34.3228 45.3247H34.3225V39.6279ZM40.0198 62.415L40.0198 56.7182H45.7165V62.415H40.0198Z" fill="black"/>
<path fill-rule="evenodd" clip-rule="evenodd" d="M77.5633 39.628H66.2251H60.5288H60.5281V56.7183V68.1118H66.2251V68.1118H71.9225V68.1118H77.6196V68.1118H77.6197V62.415H77.6196V56.7183H77.6197V51.0215H77.6196H71.9225H69.0741V56.7183H71.9225V62.415H66.2251L66.2251 56.7183V51.0215V45.3248H74.0845L77.5633 39.628Z" fill="black"/>
</svg>
