<svg width="229" height="248" viewBox="0 0 229 248" fill="none" xmlns="http://www.w3.org/2000/svg">
<g filter="url(#filter0_d_388_4007)">
<path fill-rule="evenodd" clip-rule="evenodd" d="M4 183.43V55.7047L186.787 0.34054L186.954 0.000198202L187.319 0.179377L187.912 0V0.470082L224.897 18.6252L224.361 19.7183L224.694 19.6174V147.342L89.8039 188.199L39.9988 239.085H39.5562V201.28L4 183.827L4.22904 183.36L4 183.43Z" fill="black" fill-opacity="0.1"/>
<rect x="212.408" y="20.3926" width="2.45215" height="173.724" rx="1.22608" transform="rotate(73 212.408 20.3926)" fill="#D9D9D9" fill-opacity="0.1"/>
<rect x="183.62" y="8.58301" width="2.45215" height="173.724" rx="1.22608" transform="rotate(73 183.62 8.58301)" fill="#D9D9D9" fill-opacity="0.1"/>
<rect x="197.107" y="14.7119" width="2.45215" height="173.724" rx="1.22608" transform="rotate(73 197.107 14.7119)" fill="#D9D9D9" fill-opacity="0.1"/>
</g>
<defs>
<filter id="filter0_d_388_4007" x="0" y="0" width="228.897" height="247.085" filterUnits="userSpaceOnUse" color-interpolation-filters="sRGB">
<feFlood flood-opacity="0" result="BackgroundImageFix"/>
<feColorMatrix in="SourceAlpha" type="matrix" values="0 0 0 0 0 0 0 0 0 0 0 0 0 0 0 0 0 0 127 0" result="hardAlpha"/>
<feOffset dy="4"/>
<feGaussianBlur stdDeviation="2"/>
<feComposite in2="hardAlpha" operator="out"/>
<feColorMatrix type="matrix" values="0 0 0 0 0 0 0 0 0 0 0 0 0 0 0 0 0 0 0.25 0"/>
<feBlend mode="normal" in2="BackgroundImageFix" result="effect1_dropShadow_388_4007"/>
<feBlend mode="normal" in="SourceGraphic" in2="effect1_dropShadow_388_4007" result="shape"/>
</filter>
</defs>
</svg>
