<svg width="92" height="98" viewBox="0 0 92 98" fill="none" xmlns="http://www.w3.org/2000/svg">
<g filter="url(#filter0_d_426_2758)">
<path fill-rule="evenodd" clip-rule="evenodd" d="M4 69.0492V20.9692L73.5079 0.128249L73.5713 0.000234092L73.71 0.0676296L73.9356 0V0.177232L87.9998 7.01136L87.7957 7.42285L87.9227 7.38477V55.4647L36.6284 70.8446L17.689 90H17.5205V75.7687L4 69.1987L4.08711 69.0231L4 69.0492Z" fill="#090909"/>
<path d="M35.1696 43.3042C35.6284 43.1632 35.9088 43.4503 36.0107 44.1657C36.0107 45.019 36.0617 46.9767 36.1637 50.0386L39.2224 49.0984C40.0381 48.8477 41.1342 48.5375 42.5106 48.1677C42.7018 48.0556 42.9312 47.9585 43.1988 47.8762C43.5684 47.7626 43.7978 48.0121 43.8871 48.6246V48.7046C43.8871 49.1313 43.3773 49.5547 42.3577 49.9747C41.6695 50.133 41.1597 50.263 40.8283 50.3648L35.399 52.0337C34.8637 52.1982 34.5578 51.9189 34.4814 51.1958C34.4814 50.2091 34.4304 47.9048 34.3284 44.2828C34.4941 43.7518 34.7745 43.4257 35.1696 43.3042ZM54.6617 36.8127C55.2352 36.6364 55.5921 37.1934 55.7323 38.4837C56.0127 40.1975 56.5225 41.3741 57.2617 42.0136C57.9626 42.5048 58.7273 42.8297 59.5557 42.9884C59.6577 43.1304 59.7087 43.2747 59.7087 43.4214V43.6614C59.7087 44.1414 59.4283 44.4676 58.8675 44.64C57.3891 44.5211 56.2931 43.978 55.5793 43.0107C55.3754 42.82 55.0696 42.3807 54.6617 41.6927C54.547 42.3013 53.9862 43.3004 52.9794 44.6898C51.7432 46.1898 50.8765 47.0162 50.3795 47.169C49.8697 47.219 49.6148 47.0307 49.6148 46.6041V46.5241C49.6403 46.1162 50.2775 45.3337 51.5265 44.1764C52.9539 42.351 53.6676 40.7183 53.6676 39.2783C53.7696 37.807 54.05 37.0008 54.5088 36.8597L54.6617 36.8127ZM66.819 33.5958L73.7012 31.4804C74.3639 31.37 74.6953 31.5615 74.6953 32.0548C74.6953 32.6415 74.2619 33.068 73.3953 33.3344L67.0484 35.2853L67.1248 36.0618V36.8618L71.0248 35.6631C71.764 35.4359 72.6051 35.1506 73.5482 34.8074C74.4149 34.541 74.8482 34.7012 74.8482 35.2878V35.3678C74.8482 35.7278 74.6188 36.065 74.16 36.3794C72.0826 37.0713 70.5277 37.5759 69.4954 37.8932L67.1248 38.6218V39.1818C67.1248 39.4618 67.1503 39.9073 67.2013 40.5183C67.2268 40.5105 67.3287 40.5058 67.5072 40.5043C68.3228 40.2536 70.362 39.6001 73.6247 38.5439C74.6443 38.2305 75.1541 38.3938 75.1541 39.0338C75.0139 39.6102 74.759 39.9552 74.3894 40.0689L73.3188 40.3979C71.7385 40.8837 70.2346 41.3726 68.8071 41.8647C68.2464 41.9838 67.4562 42.2 66.4366 42.5134C65.8249 42.7014 65.519 41.9421 65.519 40.2354C65.468 38.1044 65.4425 36.2989 65.4425 34.8189C65.5827 34.2425 66.0415 33.8348 66.819 33.5958Z" fill="white"/>
<rect width="0.923885" height="66.005" rx="0.461943" transform="matrix(0.29509 0.955469 -0.957125 0.289674 83.2505 7.67676)" fill="#D9D9D9"/>
<rect width="0.923885" height="66.005" rx="0.461943" transform="matrix(0.29509 0.955469 -0.957125 0.289674 72.3037 3.23096)" fill="#D9D9D9"/>
<rect width="0.923885" height="66.005" rx="0.461943" transform="matrix(0.29509 0.955469 -0.957125 0.289674 77.4321 5.53857)" fill="#D9D9D9"/>
</g>
<defs>
<filter id="filter0_d_426_2758" x="0" y="0" width="92" height="98" filterUnits="userSpaceOnUse" color-interpolation-filters="sRGB">
<feFlood flood-opacity="0" result="BackgroundImageFix"/>
<feColorMatrix in="SourceAlpha" type="matrix" values="0 0 0 0 0 0 0 0 0 0 0 0 0 0 0 0 0 0 127 0" result="hardAlpha"/>
<feOffset dy="4"/>
<feGaussianBlur stdDeviation="2"/>
<feComposite in2="hardAlpha" operator="out"/>
<feColorMatrix type="matrix" values="0 0 0 0 0 0 0 0 0 0 0 0 0 0 0 0 0 0 0.25 0"/>
<feBlend mode="normal" in2="BackgroundImageFix" result="effect1_dropShadow_426_2758"/>
<feBlend mode="normal" in="SourceGraphic" in2="effect1_dropShadow_426_2758" result="shape"/>
</filter>
</defs>
</svg>
