<svg width="1920" height="104" viewBox="0 0 1920 104" fill="none" xmlns="http://www.w3.org/2000/svg">
<path d="M2145.95 101C2758.63 -6.78186 2665.8 -6.78185 1867.45 101C2480.14 26.4386 2387.31 26.4386 1588.96 101C2201.65 21.271 2108.81 21.271 1310.46 101C1923.15 -18.5935 1830.32 -18.5935 1031.97 101C1644.66 -25.9758 1551.82 -25.9758 753.473 101C1366.16 -7.51997 1273.33 -7.51996 474.979 101C1087.67 -29.6669 994.835 -29.6669 196.484 101C809.172 3.55356 716.34 3.55357 -82.0109 101C530.677 20.5329 437.846 20.5329 -360.505 101C252.183 14.6271 159.351 14.6271 -639 101" stroke="#F66F00" stroke-width="5"/>
</svg>
