<svg width="1920" height="457" viewBox="0 0 1920 457" fill="none" xmlns="http://www.w3.org/2000/svg">
<rect x="1815" width="105" height="188" fill="#FFFEFC"/>
<rect width="676" height="188" fill="#FFFEFC"/>
<rect x="1469" y="269" width="451" height="188" fill="#FFFEFC"/>
<rect y="269" width="100" height="188" fill="#FFFEFC"/>
<path fill-rule="evenodd" clip-rule="evenodd" d="M676 0H711V0.000379418L711 0.000343827L793.7 124.094V0H828.7V188H793.7V187.989L793.686 187.998L711 63.9257V188H676V0Z" fill="#FFFEFC"/>
<path fill-rule="evenodd" clip-rule="evenodd" d="M100 269H135V269L135 269L217.7 393.094V269H252.7V457H217.7V456.989L217.686 456.998L135 332.926V457H100V269Z" fill="#FFFEFC"/>
<path fill-rule="evenodd" clip-rule="evenodd" d="M899.7 269H859.7L931.265 457H971.265L972.018 457L1043.58 269H1003.58L951.642 405.45L899.7 269Z" fill="#FFFEFC"/>
<path fill-rule="evenodd" clip-rule="evenodd" d="M1403.7 0H1363.7L1419.67 93.9197L1364.7 187.906H1404.7L1439.85 127.798L1475.13 187H1515.13L1459.67 93.9173L1514.59 0H1474.59L1439.48 60.0392L1403.7 0Z" fill="#FFFEFC"/>
<path fill-rule="evenodd" clip-rule="evenodd" d="M1618 0H1565V35H1618V188H1653V35H1815V0H1653H1618Z" fill="#FFFEFC"/>
<path fill-rule="evenodd" clip-rule="evenodd" d="M913.7 0H878.7V35V76V111V153V188H913.7H1313.7V153H913.7V111H1298.7V76H913.7V35H1308.7V0H913.7Z" fill="#FFFEFC"/>
<path fill-rule="evenodd" clip-rule="evenodd" d="M1128.58 269H1093.58V304V345V380V422V457H1128.58H1218.58V422H1128.58V380H1203.58V345H1128.58V304H1213.58V269H1128.58Z" fill="#FFFEFC"/>
<path fill-rule="evenodd" clip-rule="evenodd" d="M1303.58 269H1268.58V457H1269H1303.58H1469V422H1303.58V269Z" fill="#FFFEFC"/>
<path fill-rule="evenodd" clip-rule="evenodd" d="M729.7 457H382.7C338.517 457 302.7 414.915 302.7 363C302.7 311.085 338.517 269 382.7 269H729.7C773.883 269 809.7 311.085 809.7 363C809.7 414.915 773.883 457 729.7 457ZM403.7 422C404.691 422 405.676 421.976 406.655 421.927V422H705.7H705.746C738.31 421.975 764.7 395.57 764.7 363C764.7 330.43 738.31 304.025 705.746 304H705.725H705.7H705.676H406.655V304.073C405.676 304.024 404.691 304 403.7 304C371.115 304 344.7 330.415 344.7 363C344.7 395.585 371.115 422 403.7 422Z" fill="#FFFEFC"/>
</svg>
