<svg width="28" height="28" viewBox="0 0 28 28" fill="none" xmlns="http://www.w3.org/2000/svg">
<path d="M20.6667 27.3337V24.667H24.6667V20.667H27.3334V25.3337C27.3334 25.8537 27.12 26.3203 26.72 26.7203C26.32 27.1203 25.8534 27.3337 25.3334 27.3337H20.6667ZM7.33335 27.3337H2.66669C2.14669 27.3337 1.68002 27.1203 1.28002 26.7203C0.88002 26.3203 0.666687 25.8537 0.666687 25.3337V20.667H3.33335V24.667H7.33335V27.3337ZM20.6667 0.666992H25.3334C25.8534 0.666992 26.32 0.880326 26.72 1.28033C27.12 1.68033 27.3334 2.14699 27.3334 2.66699V7.33366H24.6667V3.33366H20.6667V0.666992ZM7.33335 0.666992V3.33366H3.33335V7.33366H0.666687V2.66699C0.666687 2.14699 0.88002 1.68033 1.28002 1.28033C1.68002 0.880326 2.14669 0.666992 2.66669 0.666992H7.33335ZM12 6.00033C15.3334 6.00033 18 8.66699 18 12.0003C18 13.1737 17.6667 14.267 17.08 15.2003L21.4267 19.547L19.5467 21.427L15.2 17.0803C14.2667 17.667 13.1734 18.0003 12 18.0003C8.66669 18.0003 6.00002 15.3337 6.00002 12.0003C6.00002 8.66699 8.66669 6.00033 12 6.00033ZM12 8.66699C11.116 8.66699 10.2681 9.01818 9.643 9.6433C9.01788 10.2684 8.66669 11.1163 8.66669 12.0003C8.66669 12.8844 9.01788 13.7322 9.643 14.3573C10.2681 14.9825 11.116 15.3337 12 15.3337C12.8841 15.3337 13.7319 14.9825 14.357 14.3573C14.9822 13.7322 15.3334 12.8844 15.3334 12.0003C15.3334 11.1163 14.9822 10.2684 14.357 9.6433C13.7319 9.01818 12.8841 8.66699 12 8.66699Z" fill="#FF5E03"/>
</svg>
