<svg width="22" height="24" viewBox="0 0 22 24" fill="none" xmlns="http://www.w3.org/2000/svg">
<path d="M12.3333 7.44C13.3733 7.44 14.2533 8.25333 14.2533 9.33333C14.2533 10.4133 13.3733 11.2533 12.3333 11.2533C11.2933 11.2533 10.44 10.3733 10.44 9.33333C10.44 8.29333 11.2533 7.44 12.3333 7.44ZM12.3333 2.78448e-06C17.5067 2.78448e-06 21.6667 4.18667 21.6667 9.33333C21.6667 13.0667 19.4933 16.2533 16.3333 17.7467V24H6.99999V20H5.66666C4.18666 20 2.99999 18.8133 2.99999 17.3333V13.3333H0.999989C0.439989 13.3333 0.119989 12.6667 0.439989 12.2533L2.99999 8.88C3.11746 6.48439 4.15229 4.22586 5.88996 2.5726C7.62762 0.919339 9.93484 -0.00184834 12.3333 2.78448e-06ZM16.3333 9.33333C16.3333 9.12 16.3333 9 16.2533 8.81333L17.44 7.93334C17.5067 7.88 17.56 7.69334 17.5067 7.56L16.44 5.74667C16.3733 5.62667 16.1867 5.56 16.0667 5.62667L14.7467 6.18667C14.5067 5.93334 14.1867 5.74667 13.88 5.62667L13.6667 4.25334C13.6267 4.06667 13.56 4 13.3733 4H11.2533C11.12 4 11 4.06667 11 4.25334L10.8133 5.62667C10.5067 5.74667 10.1867 5.93334 9.93332 6.18667L8.55999 5.62667C8.43999 5.56 8.33332 5.62667 8.25332 5.74667L7.18666 7.56C7.11999 7.74667 7.11999 7.88 7.25332 7.93334L8.37332 8.81333C8.37332 9 8.33332 9.18667 8.33332 9.33333C8.33332 9.50667 8.37332 9.69334 8.37332 9.88L7.25332 10.7467C7.11999 10.8133 7.11999 10.9333 7.18666 11.0667L8.25332 12.9333C8.33332 13.0667 8.43999 13.0667 8.55999 13.0667L9.87999 12.4933C10.1867 12.7467 10.44 12.88 10.8133 13L11 14.44C11 14.56 11.12 14.6667 11.2533 14.6667H13.3733C13.56 14.6667 13.6267 14.56 13.6667 14.44L13.88 13C14.1867 12.88 14.5067 12.7467 14.7467 12.5067L16.0667 13.0667C16.1867 13.0667 16.3733 13.0667 16.44 12.9333L17.5067 11.0667C17.56 10.9333 17.5067 10.8133 17.44 10.7467L16.3333 9.88V9.33333Z" fill="#FF5E03"/>
</svg>
