<svg width="72" height="72" viewBox="0 0 72 72" fill="none" xmlns="http://www.w3.org/2000/svg">
<g clip-path="url(#clip0_893_6228)">
<g filter="url(#filter0_d_893_6228)">
<path d="M64.23 34.74L37.23 7.74C36.15 6.66 34.65 6 33 6H12C10.4087 6 8.88258 6.63214 7.75736 7.75736C6.63214 8.88258 6 10.4087 6 12V33C6 34.65 6.66 36.15 7.77 37.26L34.77 64.26C35.85 65.34 37.35 66 39 66C40.65 66 42.15 65.34 43.23 64.23L64.23 43.23C65.34 42.15 66 40.65 66 39C66 37.35 65.31 35.82 64.23 34.74ZM16.5 21C15.3065 21 14.1619 20.5259 13.318 19.682C12.4741 18.8381 12 17.6935 12 16.5C12 15.3065 12.4741 14.1619 13.318 13.318C14.1619 12.4741 15.3065 12 16.5 12C17.6935 12 18.8381 12.4741 19.682 13.318C20.5259 14.1619 21 15.3065 21 16.5C21 17.6935 20.5259 18.8381 19.682 19.682C18.8381 20.5259 17.6935 21 16.5 21ZM51.81 45.81L39 58.62L26.19 45.81C24.7898 44.397 24.003 42.4892 24 40.5C24 38.5109 24.7902 36.6032 26.1967 35.1967C27.6032 33.7902 29.5109 33 31.5 33C33.57 33 35.46 33.84 36.81 35.22L39 37.38L41.19 35.19C42.54 33.84 44.43 33 46.5 33C48.4891 33 50.3968 33.7902 51.8033 35.1967C53.2098 36.6032 54 38.5109 54 40.5C54 42.57 53.16 44.46 51.81 45.81Z" fill="black"/>
</g>
<path d="M38.9998 59.9146L36.704 57.8796C28.5498 50.68 23.1665 45.9162 23.1665 40.1042C23.1665 35.3404 26.9982 31.625 31.8748 31.625C34.6298 31.625 37.274 32.8737 38.9998 34.8317C40.7257 32.8737 43.3698 31.625 46.1248 31.625C51.0015 31.625 54.8332 35.3404 54.8332 40.1042C54.8332 45.9162 49.4498 50.68 41.2957 57.8796L38.9998 59.9146Z" fill="#F66F00"/>
</g>
<defs>
<filter id="filter0_d_893_6228" x="2" y="6" width="68" height="68" filterUnits="userSpaceOnUse" color-interpolation-filters="sRGB">
<feFlood flood-opacity="0" result="BackgroundImageFix"/>
<feColorMatrix in="SourceAlpha" type="matrix" values="0 0 0 0 0 0 0 0 0 0 0 0 0 0 0 0 0 0 127 0" result="hardAlpha"/>
<feOffset dy="4"/>
<feGaussianBlur stdDeviation="2"/>
<feComposite in2="hardAlpha" operator="out"/>
<feColorMatrix type="matrix" values="0 0 0 0 0 0 0 0 0 0 0 0 0 0 0 0 0 0 0.25 0"/>
<feBlend mode="normal" in2="BackgroundImageFix" result="effect1_dropShadow_893_6228"/>
<feBlend mode="normal" in="SourceGraphic" in2="effect1_dropShadow_893_6228" result="shape"/>
</filter>
<clipPath id="clip0_893_6228">
<rect width="72" height="72" fill="white"/>
</clipPath>
</defs>
</svg>
