<svg width="73" height="79" viewBox="0 0 73 79" fill="none" xmlns="http://www.w3.org/2000/svg">
<path d="M7.15954 53.4136C-16.8405 56.1828 72.8299 68.0509 27.7311 76.3586" stroke="#F66F00" stroke-width="5" stroke-linecap="round"/>
<g filter="url(#filter0_d_893_6240)">
<path fill-rule="evenodd" clip-rule="evenodd" d="M27.9229 21.0455C26.9664 20.4932 26.6386 19.27 27.1909 18.3135L37.7642 -9.33455e-05L68.5986 17.8021L58.0252 36.1157C57.4729 37.0722 56.2498 37.4 55.2932 36.8477L50.8581 34.2871L44.8314 44.7256C44.2792 45.6822 43.056 46.01 42.0994 45.4577L38.9493 43.639L22.181 62.5945L30.7268 38.8917L27.7481 37.172C26.7915 36.6197 26.4638 35.3965 27.0161 34.4399L33.0427 24.0014L27.9229 21.0455Z" fill="#090909"/>
</g>
<path d="M33.7278 24.3973C32.971 23.9603 32.7117 22.9925 33.1486 22.2357L43.9308 3.56048L46.6716 5.14289L35.8895 23.8181C35.4525 24.5749 34.4847 24.8343 33.7278 24.3973V24.3973Z" fill="url(#paint0_linear_893_6240)"/>
<path d="M30.1277 38.5458C29.3709 38.1089 29.1116 37.1411 29.5485 36.3842L35.784 25.5841L38.5248 27.1665L32.2894 37.9666C31.8524 38.7235 30.8846 38.9828 30.1277 38.5458V38.5458Z" fill="url(#paint1_linear_893_6240)"/>
<defs>
<filter id="filter0_d_893_6240" x="18.1812" y="-0.00012207" width="54.4175" height="70.5946" filterUnits="userSpaceOnUse" color-interpolation-filters="sRGB">
<feFlood flood-opacity="0" result="BackgroundImageFix"/>
<feColorMatrix in="SourceAlpha" type="matrix" values="0 0 0 0 0 0 0 0 0 0 0 0 0 0 0 0 0 0 127 0" result="hardAlpha"/>
<feOffset dy="4"/>
<feGaussianBlur stdDeviation="2"/>
<feComposite in2="hardAlpha" operator="out"/>
<feColorMatrix type="matrix" values="0 0 0 0 0 0 0 0 0 0 0 0 0 0 0 0 0 0 0.25 0"/>
<feBlend mode="normal" in2="BackgroundImageFix" result="effect1_dropShadow_893_6240"/>
<feBlend mode="normal" in="SourceGraphic" in2="effect1_dropShadow_893_6240" result="shape"/>
</filter>
<linearGradient id="paint0_linear_893_6240" x1="38.1441" y1="13.5833" x2="40.8849" y2="15.1657" gradientUnits="userSpaceOnUse">
<stop stop-color="#FFFEFC"/>
<stop offset="1" stop-color="#D9D9D9"/>
</linearGradient>
<linearGradient id="paint1_linear_893_6240" x1="32.2707" y1="31.6694" x2="35.0115" y2="33.2518" gradientUnits="userSpaceOnUse">
<stop stop-color="#FFFEFC"/>
<stop offset="1" stop-color="#D9D9D9"/>
</linearGradient>
</defs>
</svg>
