<svg width="72" height="72" viewBox="0 0 72 72" fill="none" xmlns="http://www.w3.org/2000/svg">
<g clip-path="url(#clip0_893_6258)">
<g filter="url(#filter0_d_893_6258)">
<path d="M29.263 5.01841C28.9266 5.06903 28.6053 5.19394 28.322 5.38429C28.322 5.38429 25.3901 7.25127 22.2381 9.2707C19.0861 11.2878 15.5795 13.5113 14.7775 13.9616C14.7281 13.9833 14.6794 14.0068 14.6315 14.032C11.7205 15.8497 11.1156 18.819 11.0113 20.4843C11.0044 20.5617 11.0113 20.625 11.0113 20.7071C10.9858 21.331 11.0113 21.7321 11.0113 21.7321V52.3706C11.0113 56.8223 16.1403 58.9637 21.0074 58.9637C22.6298 58.9637 24.2522 58.6986 25.6428 58.2295C26.5698 57.7604 27.235 56.8223 27.235 55.8841V31.2569C27.235 25.8624 28.3938 23.3293 31.8703 21.2184C32.7974 20.7493 42.5177 13.9592 42.5177 13.9592C42.9812 13.4902 43.4587 12.5379 43.4587 11.8343V11.6138C43.4587 10.6756 42.9951 9.95791 42.2998 9.48883C41.6045 9.01974 40.6775 9.01974 39.9822 9.48883C39.7504 9.72337 25.6126 19.3561 22.5997 20.9979C19.5867 22.8743 16.7754 23.327 16.0801 22.3888C15.8645 22.1707 15.6768 21.5022 15.6467 20.8502V20.7024C15.649 20.0644 15.8112 18.8636 17.0952 18.0638C18.3977 17.3297 21.6309 15.2399 24.7736 13.2275C26.1017 12.3761 26.2662 12.2846 27.3068 11.6138C27.4438 12.1868 27.789 12.6865 28.2737 13.0136C28.7583 13.3407 29.3469 13.471 29.9222 13.3788C30.4976 13.2865 31.0175 12.9784 31.3785 12.5157C31.7395 12.0531 31.9151 11.4698 31.8703 10.882V7.36385C31.8729 7.02954 31.8049 6.69854 31.6707 6.39302C31.5366 6.08751 31.3394 5.81455 31.0925 5.59244C30.8456 5.37033 30.5546 5.2042 30.2391 5.1052C29.9235 5.0062 29.5907 4.97661 29.263 5.01841ZM47.8043 13.2275C47.4357 13.2895 47.0875 13.4408 46.7892 13.6684C46.7892 13.6684 35.122 21.6124 33.101 22.9751C33.0765 22.9996 33.0526 23.0246 33.0292 23.0502C31.3512 24.3238 30.3569 25.8389 29.9142 27.2251C29.6662 28.0071 29.5441 28.8244 29.5527 29.6456V30.3797C29.5493 30.4524 29.5493 30.5252 29.5527 30.5978V58.9637C29.5527 63.42 34.6237 66 39.2591 66C41.345 66 43.2269 65.545 44.6175 64.6068C47.3987 62.965 60.8412 52.3683 60.8412 52.3683C61.5365 51.8992 62 51.2378 62 50.5341V20.0433C62 18.8706 61.5504 18.167 60.6233 17.6979C59.928 17.2288 58.7854 17.4493 58.0901 17.9184C54.3818 20.7329 44.3996 28.6793 42.082 30.0865C38.8372 31.9629 35.7802 32.432 34.6214 31.2593C34.1579 30.7902 34.188 30.3492 34.188 29.6456C34.2019 29.2422 34.2459 28.895 34.334 28.6183C34.4638 28.2102 34.728 27.7082 35.7084 26.9343C35.7547 26.8967 35.7316 26.8991 35.7802 26.8615C37.4559 25.7287 42.5803 22.1941 45.9223 19.8956C46.1117 20.4096 46.4731 20.8402 46.9437 21.1125C47.4143 21.3848 47.9644 21.4815 48.4982 21.3859C49.032 21.2902 49.5157 21.0082 49.8653 20.589C50.2149 20.1697 50.4083 19.6397 50.4117 19.0911V15.5729C50.4143 15.2386 50.3462 14.9076 50.212 14.6021C50.0779 14.2966 49.8808 14.0236 49.6338 13.8015C49.3869 13.5794 49.096 13.4133 48.7804 13.3143C48.4649 13.2153 48.1321 13.1857 47.8043 13.2275ZM57.3647 30.3797V35.0706L45.7763 44.1569V39.466L57.3647 30.3797Z" fill="black"/>
</g>
<rect width="18" height="22" rx="1" transform="matrix(0.793353 -0.608761 -0.0165799 0.999863 44.3647 35.9578)" fill="#F66F00"/>
</g>
<defs>
<filter id="filter0_d_893_6258" x="7" y="5" width="59" height="69" filterUnits="userSpaceOnUse" color-interpolation-filters="sRGB">
<feFlood flood-opacity="0" result="BackgroundImageFix"/>
<feColorMatrix in="SourceAlpha" type="matrix" values="0 0 0 0 0 0 0 0 0 0 0 0 0 0 0 0 0 0 127 0" result="hardAlpha"/>
<feOffset dy="4"/>
<feGaussianBlur stdDeviation="2"/>
<feComposite in2="hardAlpha" operator="out"/>
<feColorMatrix type="matrix" values="0 0 0 0 0 0 0 0 0 0 0 0 0 0 0 0 0 0 0.25 0"/>
<feBlend mode="normal" in2="BackgroundImageFix" result="effect1_dropShadow_893_6258"/>
<feBlend mode="normal" in="SourceGraphic" in2="effect1_dropShadow_893_6258" result="shape"/>
</filter>
<clipPath id="clip0_893_6258">
<rect width="72" height="72" fill="white"/>
</clipPath>
</defs>
</svg>
