<svg width="460" height="474" viewBox="0 0 460 474" fill="none" xmlns="http://www.w3.org/2000/svg">
<g filter="url(#filter0_f_373_2091)">
<circle cx="230" cy="244" r="200" fill="#F2CD3C" fill-opacity="0.5"/>
</g>
<path d="M242.5 131.5C291 131.5 330 170.75 330 219C330 254 309.625 283.875 280 297.875V356.5H192.5V319H180C166.125 319 155 307.875 155 294V256.5H136.25C131 256.5 128 250.25 131 246.375L155 214.75C156.101 192.291 165.803 171.117 182.093 155.618C198.384 140.119 220.014 131.483 242.5 131.5ZM209 186.375H233.125C233.25 182.625 234.375 179.75 236.625 177.75C238.94 175.831 241.869 174.81 244.875 174.875C248.75 174.875 252 176.125 254.25 178.375C256.5 180.75 257.5 184 257.5 187.75C257.5 191.75 256.625 195.125 254.625 198C252.875 200.875 250.25 203.375 247 205.375C240.625 209.625 236.25 213.375 233.875 216.75C231.375 220 230 225.25 230 231.5H255C255 227.625 255.5 224.5 256.625 222.25C257.75 219.875 259.875 217.75 263 215.75C268.625 212.75 273.25 209.125 276.875 204.125C280.5 199.125 282.375 194 282.375 187.75C282.375 178.25 279 170.625 272.25 165C265.625 159.375 256.5 156.5 244.875 156.5C234 156.5 225.25 159 218.5 163.875C212 169 208.75 176.125 208.875 186L209 186.375ZM230 269H255V244H230V269ZM242.5 106.5C185.125 106.5 137.625 149.25 130.75 205.25L111.25 231.5H110.875L110.625 231.875C103.75 241.375 102.875 253.875 108.25 264.25C112.75 272.875 120.75 278.875 130 280.75V294C130 317.125 146 336.75 167.5 342.375V381.5H305V312.75C336.25 291.875 355 257.25 355 219C355 156.875 304.5 106.5 242.5 106.5Z" fill="#F2CD3C"/>
<path d="M324.44 28.078C324.44 34.198 327.96 38.438 332.84 38.438C337.68 38.438 340.2 35.878 341.96 30.558L342.64 28.478C343.8 25.038 345 23.518 346.84 23.518C348.56 23.518 349.64 25.198 349.64 27.758C349.64 29.958 348.76 31.478 346.36 32.438C346.04 32.558 345.92 32.758 346 33.078L347.12 37.478C347.2 37.798 347.44 37.958 347.76 37.838C352.64 36.358 354.92 32.678 354.92 27.758C354.92 22.198 351.48 17.918 346.68 17.918C342.48 17.918 339.72 20.758 338.12 25.438L337.2 28.038C336.12 31.038 334.96 32.838 332.84 32.838C330.64 32.838 329.72 30.918 329.72 28.078C329.72 25.078 330.92 23.398 333.48 22.358C333.8 22.238 333.92 22.038 333.84 21.718L332.84 17.558C332.76 17.238 332.52 17.078 332.2 17.198C327.12 18.758 324.44 22.598 324.44 28.078ZM325 62.5452C325 62.8652 325.2 63.0652 325.52 63.0652L329.56 63.0652C329.88 63.0652 330.08 62.8652 330.08 62.5452L330.08 48.3852L337.6 48.3852L337.6 60.7452C337.6 61.0652 337.8 61.2652 338.12 61.2652L342.08 61.2652C342.4 61.2652 342.6 61.0652 342.6 60.7452L342.6 48.3852L349.28 48.3852L349.28 62.0652C349.28 62.3852 349.48 62.5852 349.8 62.5852L353.84 62.5852C354.16 62.5852 354.36 62.3852 354.36 62.0652L354.36 43.5052C354.36 43.1852 354.16 42.9852 353.84 42.9852L325.52 42.9852C325.2 42.9852 325 43.1852 325 43.5052L325 62.5452ZM325 70.8298C325 71.1098 325.12 71.3098 325.4 71.4298L330.88 73.5098L330.88 85.7098L325.4 87.7898C325.12 87.9098 325 88.1098 325 88.3898L325 93.4298C325 93.7898 325.24 93.9898 325.6 93.8298L353.96 82.1098C354.24 81.9898 354.36 81.7898 354.36 81.5098L354.36 77.7898C354.36 77.5098 354.24 77.3098 353.96 77.1898L325.6 65.4698C325.24 65.3098 325 65.5098 325 65.8698L325 70.8298ZM347 79.5898L335.88 83.7898L335.88 75.3898L347 79.5898ZM325 102.787C325 103.107 325.2 103.307 325.52 103.307L333.88 103.307L333.88 107.307C333.88 108.107 333.92 108.827 334 109.547L325.36 114.267C325.12 114.387 325 114.587 325 114.867L325 119.787C325 120.187 325.28 120.347 325.64 120.147L335.64 114.667C337.48 117.587 340.52 118.947 344.12 118.947C350.76 118.947 354.36 115.427 354.36 107.307L354.36 98.427C354.36 98.107 354.16 97.907 353.84 97.907L325.52 97.907C325.2 97.907 325 98.107 325 98.427L325 102.787ZM349.36 103.307L349.36 107.107C349.36 111.347 347.8 113.347 344.12 113.347C340.44 113.347 338.88 111.347 338.88 107.107L338.88 103.307L349.36 103.307ZM324.44 137.986C324.44 145.146 328.28 149.706 333.8 151.266C334.04 151.346 334.24 151.226 334.32 150.906L335.52 146.666C335.6 146.346 335.48 146.146 335.16 146.026C331.48 144.706 329.72 141.906 329.72 138.146C329.72 132.586 333.64 129.266 339.68 129.266C345.68 129.266 349.64 132.546 349.64 138.146C349.64 141.466 348.16 143.986 345.48 145.386C345.2 145.506 345.08 145.746 345.16 146.026L346.36 150.306C346.44 150.626 346.72 150.746 347.04 150.626C352.04 148.666 354.92 144.226 354.92 138.066C354.92 129.666 348.92 123.666 339.68 123.666C330.44 123.666 324.44 129.386 324.44 137.986ZM325 161.381C325 161.701 325.2 161.901 325.52 161.901L337.52 161.901L337.52 175.501L325.52 175.501C325.2 175.501 325 175.701 325 176.021L325 180.381C325 180.701 325.2 180.901 325.52 180.901L353.84 180.901C354.16 180.901 354.36 180.701 354.36 180.381L354.36 176.021C354.36 175.701 354.16 175.501 353.84 175.501L342.6 175.501L342.6 161.901L353.84 161.901C354.16 161.901 354.36 161.701 354.36 161.381L354.36 157.021C354.36 156.701 354.16 156.501 353.84 156.501L325.52 156.501C325.2 156.501 325 156.701 325 157.021L325 161.381Z" fill="black"/>
<path d="M316 185L316 15" stroke="black" stroke-width="3"/>
<defs>
<filter id="filter0_f_373_2091" x="0" y="14" width="460" height="460" filterUnits="userSpaceOnUse" color-interpolation-filters="sRGB">
<feFlood flood-opacity="0" result="BackgroundImageFix"/>
<feBlend mode="normal" in="SourceGraphic" in2="BackgroundImageFix" result="shape"/>
<feGaussianBlur stdDeviation="15" result="effect1_foregroundBlur_373_2091"/>
</filter>
</defs>
</svg>
