<svg width="54" height="54" viewBox="0 0 54 54" fill="none" xmlns="http://www.w3.org/2000/svg">
<path d="M9.66683 13.6668C8.60596 13.6668 7.58855 13.2454 6.8384 12.4953C6.08826 11.7451 5.66683 10.7277 5.66683 9.66683C5.66683 8.60596 6.08826 7.58855 6.8384 6.8384C7.58855 6.08826 8.60596 5.66683 9.66683 5.66683C10.7277 5.66683 11.7451 6.08826 12.4953 6.8384C13.2454 7.58855 13.6668 8.60596 13.6668 9.66683C13.6668 10.7277 13.2454 11.7451 12.4953 12.4953C11.7451 13.2454 10.7277 13.6668 9.66683 13.6668ZM52.0935 25.8802L28.0935 1.88016C27.1335 0.920162 25.8002 0.333496 24.3335 0.333496H5.66683C2.70683 0.333496 0.333496 2.70683 0.333496 5.66683V24.3335C0.333496 25.8002 0.920162 27.1335 1.90683 28.0935L25.8802 52.0935C26.8668 53.0535 28.2002 53.6668 29.6668 53.6668C31.1335 53.6668 32.4668 53.0535 33.4268 52.0935L52.0935 33.4268C53.0802 32.4668 53.6668 31.1335 53.6668 29.6668C53.6668 28.1735 53.0535 26.8402 52.0935 25.8802Z" fill="black"/>
</svg>
