<svg xmlns="http://www.w3.org/2000/svg" viewBox="0 0 1920 1039"><path class="path path3" d="M343.5-.5c-2,3.68-5.41,8.38-11,11a22.5,22.5,0,0,1-9,2c-11.22.68-27.27,20.19-30,36-5.21,30.22,43,54.4,38,64-6.66,12.79-101.59-12.1-100-30,1.79-20.2,127.3-39.95,245-19,61,10.86,74.66,24.6,139,29,67.25,4.6,83.21-8.3,147-7,74.76,1.52,179.3,21.82,182,51,4,43.33-222.17,44.78-260,163-21,65.63,17,164.36,47,218a387.41,387.41,0,0,0,20.67,32.77C813.6,639.53,868.93,660.88,968.5,750.5c50.45,45.41,35.44,39.21,74,72,89.63,76.23,195.91,131.17,208,116,1.42-1.78.88-3.7-8-27-21-55-26.13-65.61-24-82,2.24-17.27,11.8-35.17,20-35,5.74.12,11,9.12,13,16,4,14.22-4.43,25.51,0,29,2.93,2.31,9.32-.52,13-3,11.31-7.61,8.89-19.8,20-42a93.71,93.71,0,0,1,12-19c11.06-13.39,28.07-25.71,33-22,3.61,2.72-.09,13.45-2,19-6,17.46-16.86,25.75-15,28,1.51,1.83,10.82-1,17-8,6.53-7.35,3.85-12.85,10-25,4.35-8.59,12.58-19.48,18-18,3.2.87,4.44,5.79,5,8,2,8.08-1.77,13-5,27-2,8.73-3.74,16.28-1,18s10.28-3,15-9c10-12.78,3.86-26,13-32a13.65,13.65,0,0,1,13-1c4.7,2.31,7,7.66,7,12,0,5.46-3.71,9.5-5,11-12.59,14.59-18,42.66-13,46,3.88,2.62,16.41-8.34,22-14,11.27-11.41,13.87-21,21-21,3.62,0,7.76,2.54,9,6,1.46,4.09-.94,10-25,33-18.94,18.07-23,19.73-28,29-6.09,11.41-2.64,14.09-8,28-2,5.24-12.66,31.19-34,40-9.13,3.77-18.07,3.52-44-3-46.44-11.67-61-21.74-106-35-30.19-8.91-31-6.57-44-13-15-7.46-45-26-55-31-4.5-2.22-7.39-3.54-7.39-3.54-3.93-1.81-5.42-2.37-8.76-4,0,0-3.11-1.49-6.85-3.49-16.21-8.68-41.68-22.32-40-31,.31-1.58,1.57-3.33,37-12,24.09-5.9,29.41-6.53,38.19-9.46a125.47,125.47,0,0,1,14.3-3.91c4.57-1,7.91-1.41,9.51-1.63,12.88-1.81,22.49-3.17,30-7,5-2.53,10.64-9.69,22-24,8.65-10.89,10.72-15,17-17s9.59.36,16-3c4.39-2.3,9.91-7.11,9-11s-8.06-5.27-12-6c-7.46-1.39-22.39-2.09-36,6a35.81,35.81,0,0,1-11,5c-3.46.83-9.77,2.35-13-1s-1.46-9.57-1-11c1.82-5.69,6.51-9.55,13-13,5.13-2.72,16.38-7.83,38-9,9.89-.53,18.54-.06,31-3,4.63-1.09,11.32-3,13-8a7.72,7.72,0,0,0,0-5c-3.18-7.61-25-5.56-31-5-20.36,1.91-29.7,7.59-49,6-9.52-.79-11.67-2.53-12-4-.58-2.57,4-6.22,8-8,6.35-2.81,9.4-.08,15-3,3.75-2,7.74-6,7-9-.33-1.34-1.82-3.5-11-5-4.61-.76-17.21-2.34-37,3a120.6,120.6,0,0,0-25.87,10.19,123.14,123.14,0,0,0-11.13,6.81c-5.29,3.65-14.86,10.89-33,32,0,0-21,24.5-31,29a41.9,41.9,0,0,1-6.85,2.52c-3.29.77-5.05.58-8.65,1.69a36.53,36.53,0,0,0-4.5,1.79c-6.8,3.24-37.49,39.37-25,56,8.06,10.72,31.57,10,35,3,2-4.16-4.11-8.32-11-22-4-7.86-13.17-26.16-9-41,2.67-9.48,9.16-11.74,30-27,19.74-14.46,33.17-24.29,47-39,11.42-12.14,20.37-24.7,37.37-39a110.33,110.33,0,0,1,13.63-10,106,106,0,0,1,27-12c19-4.92,38.4,8.29,55,18,9.51,5.56,35.67,16,88,37,35.71,14.3,58.92,23.6,91,30,40.32,8,85.61,9.71,87,3,.86-4.12-15-10.53-41-21-11-4.42-40-15.71-82-26-12-2.93-22.22-5.11-33.73-7.55-23-4.87-35.37-7-48.27-9.45,0,0-92.69-17.86-120-48a25.83,25.83,0,0,1-4-6c-1.6-3.56-1.86-6.8-2-13-.21-9.57,0-13,0-13,1.71-28,.88-22.07,2.26-38.23.88-10.36,1.66-18,1.74-18.77,2.64-26,8.25-125.2,15-163a25,25,0,0,1,6-13c2.17-2.33,7.87-7.36,27-8,23.19-.78,33,6,65,6h0c40.34,0,116.15,26,172,37,22.91,4.51,125,22.75,138,26a70.91,70.91,0,0,1,9,3,58.48,58.48,0,0,1,11,6c9.46,7,6.48,30.47,6,34-6.22,45.76-9.33,68.64-13,86-4.2,19.9-6.71,34.23-10,53-5.27,30.07-16.68,59.47-17,90,0,0-.21,19.44-10,33a9.24,9.24,0,0,1-1.21,1.45c-.33.28-1.17.93-1.79,1.55h0c-4.2,4.2-15,2-15,2s-281.41-57.47-349-111c-.58-.46-1.14-1-1.14-1a35.75,35.75,0,0,1-3.86-4c-8.53-10.73-7-30-7-30,3.25-40.87,22-76.8,20-122-.64-14.5.24-26,2-49,.86-11.2,1.81-19.93,8-27,7.15-8.17,17.9-10.26,26-11,73.27-6.72,294.72,62.87,320,68a34,34,0,0,1,14,6c3.86,2.87,10.07,8.9,14,23,3.8,13.64,3.39,27.43-1,49-5.63,27.66-10.81,33.72-17,60-2.81,11.9-2.13,12.3-7,44-13.25,86.25-20.5,98-12,117,2.07,4.64,6.87,13.73,5,25-1.6,9.65-7.21,15.5-14,24-9,11.27-15.92,24-24,36-18.57,27.46-27.86,41.19-35,60-8.88,23.4-4,26.1-14,46-6.9,13.74-8.31,10.64-25,37-12.84,20.27-16.71,29.54-25,30-6.19.34-12.8-4.34-15-10-2.59-6.65,1.27-13.7,5-20,11.57-19.57,17.36-29.35,27-39,19.64-19.65,28.75-41.91,46-84,14.22-34.71,14.91-51.2,34-68a86.84,86.84,0,0,1,27-16"/></svg>