<svg xmlns="http://www.w3.org/2000/svg" viewBox="0 0 1920 2175"><path class="path path4" d="M1397.5,803.5c-.45-3.16-1.56-10.9-2-14-74.3-521.09-39-382.67-41-394-.16-.89-1-5.61,0-6,.82-.31,2.45,2.16,3,3,2,3,7,40.59,21,262-98.87,29.55-168.44,50.13-177,52-1.24.27-6.45,1.29-7,4-.42,2,2,4.17,3,5,18.68,15.83,184.31,87.88,191,91,1.33.62,6.76,3.36,13,2a16.41,16.41,0,0,0,5-2c9.9-5.83,127.46-58.75,142-68a15.07,15.07,0,0,0,5-5,16.87,16.87,0,0,0,2-7c.51-9.78-22.92-222.71-17-241,.43-1.33,1.64-5.07,3-5,1.68.08,2.66,5.94,3,8,11.08,66.35,3.35,135.35,18,201,.32,1.43,1.51,6.27-1,9-3.63,3.94-12.72,1-16,0-41.89-13.21-127.43-33.37-140-44-.68-.57-3.37-3-7-3a11.1,11.1,0,0,0-7,3c-14.2,12.08-141.61,53.18-171,54-2.49.07-9.33.26-10-2-.52-1.73,2.79-4.12,4-5,14.49-10.5,107.64-42.22,143-44,1.86-.09,7.51-.3,10-4,1.84-2.73,1.15-6.15,1-7-2.22-12.63-17.06-207.22-17-252,0-1.57,0-4.61-2-7-15.92-18.81-115.61,52.92-154,69-2.43,1-11.42,4.66-11,8,.31,2.51,5.82,3.71,7,4,23.67,5.79,162.08,99.23,183,111,1.68.94,5.71,3.11,10,2a10.92,10.92,0,0,0,5-3c8.11-8.07,120-77.62,142-98,2.25-2.09,6.14-6.07,6-11-.11-3.87-2.68-7.55-3-8a19.66,19.66,0,0,0-4-4c-16.71-12-25.06-18.05-172-76a13.23,13.23,0,0,0-5-1,15.24,15.24,0,0,0-5,1c-4.4,1.74-153.25,64.12-174,83-.86.79-4.06,3.82-7,3-3.86-1.07-4.73-8-5-8-1.17.12,14.26,131.61,28,247-25.09,92.65-58.31,181.56-96,181-76.91-1.15-112.34-374-181-372-41.72,1.19-39.53,139.16-149,298-23.94,34.73-143.5,208.23-232,185-105.07-27.57-154.27-329.28-61-390,62.16-40.47,176.78,33.13,256,84,145.93,93.7,264.2,239.75,241,269-39.36,49.61-416-325-659-204-105,52.28-188.18,198.65-158,293,13.69,42.8,37.68,34.17,79,102,82.14,134.81,47,266.75,32,289.37C250.23,1460.25,234.3,1477,234.3,1477c-3,3.18-6.88,7.22-11.93,11.72-16.31,14.55-28.81,19.37-46.21,29.25-12.51,7.11-28.79,16.35-43.28,30a170.69,170.69,0,0,0-31.78,44.39C62.67,1670,122.7,1812,104.74,1934.44c0,0-10.14,69.07,17,97.06,1.08,1.11,10.91,8.49,10.92,8.49h0s3.36,1.7,3.63,1.82c3.22,1.44,65.47,0,87.35,0h0c58.86,0,103.42,0,121.32-24.27,6.07-8.22,7.05-16.5,14.56-18.19,9.37-2.12,22.27,7.51,21.23,14-.94,5.79-13.47,10.92-20.62,7.28-10.54-5.36-8.64-29.32-6.07-41.25,8.13-37.75,45.38-59.16,60.66-67.94,39.31-22.59,102.14-39.71,134.67-34,2.94.51,16.63,3.16,29.12-3.64,2-1.1,12.64-6.89,12.13-14.56-.39-5.86-7.21-11.63-13.35-12.13-14.31-1.17-32.46,25.7-36.39,51-5.17,33.15,12.86,71.76,40,84.93,11.4,5.52,32.55,10.52,47.07,13.94a160.79,160.79,0,0,1,28.15,10.32c8.93,4.19,14.9,7,14.56,9.71-.56,4.44-18.92,10-32.76,4.85-23.74-8.76-38.12-50.26-34-84.93,3.11-25.94,16.2-44.67,8-74a90.35,90.35,0,0,0-4.39-12.12c-9.52-22-27.83-43.28-37.61-49.75a23.16,23.16,0,0,1-7.3-7.54c-1.59-2.67-3-5-2.4-7,2-7,26.87-6.27,40-4.85a149.93,149.93,0,0,1,17.81,3.08,205.89,205.89,0,0,1,26.21,8.17c4.21,1.65,8.38,3.52,8.38,3.52l2.2,1c2.13,1,46.65,18.51,98.27-6.06,17.64-8.4,42.9-20.43,46.1-41.25,1.89-12.24-5.63-15.89-7.28-36.4-1.81-22.59,5-46.81,12.14-47.31,5.11-.37,11.41,11.47,13.34,21.83,7.12,38.25-41.83,74.86-47.31,78.86-7.85,5.73-48.74,35.56-94.64,26.69-25.37-4.9-40.88-19.43-75.09-21.51-12.53-.76-28-1.54-28-1.54-31.45-1.58-32.31-1.12-36.4-2.42-17-5.43-33.29-23.28-36.39-44.89,0,0-4.14-28.81,23.05-54.6a83.44,83.44,0,0,1,16-11.55,73.3,73.3,0,0,1,9.5-4.22c9.3-3.37,26-9.41,40-2.43,7.19,3.58,14.93,11.19,13.35,15.78-2,5.88-18.92,5.36-29.12,3.64-16.17-2.74-39.44-12.55-38.82-23.06s24.3-18.66,42.46-18.19a61,61,0,0,1,26.69,7.27c9.83,5,22.26,14.26,20.63,18.2-1.35,3.27-12.37,2.93-20.63,0-25.67-9.1-39.77-48.63-30.33-58.23,6.49-6.6,27.43-2.47,46.1,1.21,7.13,1.41,13.15,3,15.77,0,3.82-4.43-2-16-6.06-21.84-20.08-28.65-76.22-28.82-80.07-18.2-2.33,6.42,14.72,16,12.13,20.63-3.07,5.45-29.27-3.94-35.19-6.07-26.35-9.45-65.49-28-63.08-35.18,1.56-4.69,18.28,2.59,59.44,2.43,27.38-.11,61.77-3.5,83.39,4.24,1.07.38,5.82,2.12,12.46,4.25,8.25,2.65,20.2,6.49,26.69,7.28,3.44.42,16.36,1.33,38.82-18.2,21.43-18.63,65.8-57.21,54.6-105.55-6.18-26.66-27.24-47.57-44.89-55.81-8-3.72-22.58-8.27-37.61-10.92-2.59-.45-7.55-1.27-14.45-1.94-38.06-3.72-68.09,3.36-122.65,11.65a37.72,37.72,0,0,0-14.55,4.85c-4.4,2.64-9.17,6.85-18.2,21.84-6.38,10.58-5.32,10.67-10.69,19.69-8.73,14.69-12.6,16.25-19.32,28.56a115.92,115.92,0,0,0-8.82,20.9c-4.95,15.46-11.05,34.51-3.64,46.11,4.41,6.88,11.74,8.25,37.61,12.13,59.52,8.92,88.19,11.79,115,4.66,3.85-1,7.08-2.09,7.51-2.24,1.42-.47,26.37-9,43.68-25.47,14.23-13.53,19.43-28.73,29.11-57,10-29.16,9.5-42.71,19.42-46.1,9.35-3.19,21.71,4.8,27.9,13.35,7.91,10.92,6.64,24,4.85,42.46-2,20.85-7.83,33.95-1.47,53.08a41.27,41.27,0,0,0,1.47,3.94c7.19,16.28,27.6,31,46.11,26.69,22.13-5.14,28.72-34.52,29.11-36.39,5.93-28.31-13.53-53.41-26.69-70.37s-28.11-28.36-34-32.76c-18.69-14-23.1-11.93-35.18-23-5.25-4.83-23.9-22.47-27.91-49.74-3.82-26,6.61-54.24,15.78-54.6,9.6-.37,12.38,30.13,26.69,31.55s22.56-28.32,37.61-26.69c11.53,1.24,12.15,19.29,27.9,24.26,12.81,4,17.4-6.3,31.54-6.07,24.14.41,30.61,30.86,76.44,68,11.68,9.45,17.52,14.18,27,19,13,6.69,20.93,7.58,32.11,16.31,6.57,5.13,10.45,10,14.89,15.6,20.13,25.48,27.71,51.93,41.25,67.94,4.08,4.82,6.81,8,11.6,11.11,3.9,2.49,6.83,3.39,11,7a44,44,0,0,1,6.55,7.41c17.71,25.48,4.85,88.56,4.85,88.56-8.88,43.58-16.82,82.59-35.18,84.93-8.37,1.07-15.44-5.94-20.62-10.92-65.48-62.94-126.9-88.9-149.23-91-16.63-1.56-38.74,7.59-40,8.49h0a21,21,0,0,1-6.24,2.68c-1.48.34-6.48,2.74-16.5,7.54l-1.9.92-2,1c-16.34,8-40,6.07-40,6.07-28.21-2.28-73-17-71.58-23,1.24-5.48,40.15-2.37,54.59-1.21,32.81,2.62,49.69,8.13,60.66-2.43,4.15-4,8.33-11.12,6.07-15.77-3.37-6.94-20-6.1-20.63-3.64-.44,1.67,6,6.18,12.14,6.06,5.91-.1,10.28-4.43,21.83-20.62,14.09-19.75,21.15-29.8,21.84-38.82,1-12.74-4.16-24.39-4.85-24.27s-.61,8.38,2.43,15.77c5.11,12.48,17.33,18.42,21.83,20.63,0,0,59.85,29.36,157.72,104.34,2.1,1.61,6.45,5.06,8.5,10.91,1.7,4.88,1.57,10.73-4.86,26.7-6.81,16.92-10.22,25.39-14.56,26.69-8.58,2.57-15.15-9.4-40-27.91-17.54-13-26.32-19.57-37.61-20.62-18.72-1.75-39.41,9.4-48.53,26.69a40.47,40.47,0,0,0-4.85,24.26c1.66,13,10.66,28.88,20.62,29.12,13.49.33,30.43-28,37.61-48.53,2-5.6,3.1-10.34,7.28-12.13,10.34-4.42,32.55,12.14,31.54,26.69a13.85,13.85,0,0,1-.43,2.56c-3.38,13.13-19.3,16.46-39.6,30.2-14.88,10.06-22.4,19.13-37.47,21.43a31.55,31.55,0,0,1-6.21.41c-12.42-.49-23.67-8.62-29.12-17-10-15.36-2.7-35,3.64-52.17,6.21-16.77,9.58-25.86,18.2-31.54,28.23-18.6,92.21,13,112.83,59.45,4.32,9.71,6.51,14.65,6.07,21.83-2,32.36-54.26,60.34-61.88,82.5,0,0,0,.05-4.94,14.62a238.36,238.36,0,0,1-.89,29,273.71,273.71,0,0,1-5.09,31.57c-3,13.23-10.85,47.17-32.75,77.65-27.21,37.85-63.43,52.66-106.77,70.37-5.44,2.22-56.9,23.25-61.87,14.56-3.85-6.73,21.34-29,35.18-41.25,13-11.51,19.88-17.59,31.21-24.39,12.89-7.75,22.87-11.22,35.63-23.23a87.14,87.14,0,0,0,10.81-11.83c16.85-22.6,10.24-39.38,26.72-58.23a61.69,61.69,0,0,1,10.89-9.71c18.48-13.41,25.86-5.41,49.74-17,7.51-3.64,17.33-9.55,30.17-7.74.34,0,1.51.21,2.59.46,16.22,3.76,31.29,30.91,32.75,58.24,1.27,23.56-7.69,45.14-12.13,44.89-2.86-.17-6.81-9.62-8.38-16.47,0,0-.06-.26-.11-.52-1.45-6.75-2.61-26.48,4.85-32.76,16-13.41,72.83,33.58,78.86,40l.26.27a135.4,135.4,0,0,1,10.39,12.91l.68,1,.42.64c11.65,17.45,29.5,37.37,29.5,37.37,15.82,17.64,23.72,26.45,29.12,30.33,16.24,11.67,31.82,15,40,17,31.7,7.49,96.13,8.93,178.34,0"/></svg>