<svg width="508" height="188" viewBox="0 0 508 188" fill="none" xmlns="http://www.w3.org/2000/svg">
<path fill-rule="evenodd" clip-rule="evenodd" d="M427.7 188H80.7002C36.5174 188 0.700195 145.915 0.700195 94C0.700195 42.0852 36.5174 0 80.7002 0H427.7C471.883 0 507.7 42.0852 507.7 94C507.7 145.915 471.883 188 427.7 188ZM101.7 153C102.691 153 103.676 152.976 104.655 152.927V153H403.7H403.746C436.31 152.975 462.7 126.57 462.7 94C462.7 61.4305 436.31 35.0247 403.746 35H403.725L403.7 35L403.676 35H104.655V35.0727C103.676 35.0244 102.691 35 101.7 35C69.1154 35 42.7002 61.4152 42.7002 94C42.7002 126.585 69.1154 153 101.7 153Z" fill="#FFFEFC"/>
</svg>
