<svg width="69" height="39" viewBox="0 0 69 39" fill="none" xmlns="http://www.w3.org/2000/svg">
<g filter="url(#filter0_d_574_3351)">
<path d="M62.6253 32.6715C62.2692 32.6715 61.9177 32.6228 61.5977 32.5292C61.2776 32.4355 60.9973 32.2993 60.7781 32.131C57.4295 29.5584 54.3225 27.573 50.0379 26.2423C46.0725 25.0145 41.0921 24.3737 34.5003 24.2542V31.2652C34.4989 31.5397 34.3636 31.808 34.1112 32.0369C33.8588 32.2658 33.5002 32.4454 33.0797 32.5535C32.6592 32.6616 32.1951 32.6935 31.7448 32.6453C31.2944 32.5971 30.8774 32.4708 30.5452 32.2821L4.76394 17.5165C4.53484 17.3852 4.35248 17.2274 4.22789 17.0526C4.1033 16.8778 4.03906 16.6897 4.03906 16.4996C4.03906 16.3095 4.1033 16.1214 4.22789 15.9466C4.35248 15.7718 4.53484 15.614 4.76394 15.4827L30.5452 0.717092C30.8774 0.528379 31.2944 0.402127 31.7448 0.353904C32.1951 0.30568 32.6592 0.337594 33.0797 0.44571C33.5002 0.553825 33.8588 0.733415 34.1112 0.962335C34.3636 1.19126 34.4989 1.4595 34.5003 1.73399V8.79688C45.3606 9.09658 53.4524 11.5136 58.575 15.9925C62.8186 19.7023 64.969 24.8404 64.969 31.2652C64.969 31.6382 64.7221 31.9959 64.2826 32.2596C63.843 32.5233 63.2469 32.6715 62.6253 32.6715Z" fill="#F66F00"/>
<path d="M62.6253 31.1715H62.6252C62.402 31.1715 62.1932 31.1405 62.0189 31.0896C61.8413 31.0375 61.7368 30.9759 61.6918 30.9413C58.2721 28.3142 55.0041 26.214 50.4828 24.8098L50.4815 24.8094C46.3268 23.5229 41.1892 22.8752 34.5275 22.7544L33.0003 22.7268V24.2542V30.9924C32.935 31.0264 32.8388 31.0667 32.7062 31.1008C32.4671 31.1622 32.184 31.1838 31.9045 31.1538C31.6226 31.1237 31.4114 31.0486 31.2878 30.9788C31.2872 30.9785 31.2866 30.9782 31.2861 30.9779L6.00659 16.4996L31.2861 2.02135C31.2866 2.02104 31.2872 2.02073 31.2877 2.02041C31.4113 1.9506 31.6225 1.87557 31.9045 1.84538C32.184 1.81544 32.4671 1.837 32.7062 1.89846L33.0797 0.44571L32.7062 1.89846C32.8388 1.93257 32.9351 1.97278 33.0003 2.00683V8.79688V10.2561L34.4589 10.2963C45.166 10.5918 52.8447 12.9747 57.5876 17.1217L57.5877 17.1218C61.4008 20.4552 63.4091 25.067 63.4677 30.9974C63.2966 31.0862 62.9992 31.1715 62.6253 31.1715Z" stroke="black" stroke-width="3"/>
</g>
<defs>
<filter id="filter0_d_574_3351" x="0.0390625" y="0.332031" width="68.9297" height="40.3398" filterUnits="userSpaceOnUse" color-interpolation-filters="sRGB">
<feFlood flood-opacity="0" result="BackgroundImageFix"/>
<feColorMatrix in="SourceAlpha" type="matrix" values="0 0 0 0 0 0 0 0 0 0 0 0 0 0 0 0 0 0 127 0" result="hardAlpha"/>
<feOffset dy="4"/>
<feGaussianBlur stdDeviation="2"/>
<feComposite in2="hardAlpha" operator="out"/>
<feColorMatrix type="matrix" values="0 0 0 0 0 0 0 0 0 0 0 0 0 0 0 0 0 0 0.25 0"/>
<feBlend mode="normal" in2="BackgroundImageFix" result="effect1_dropShadow_574_3351"/>
<feBlend mode="normal" in="SourceGraphic" in2="effect1_dropShadow_574_3351" result="shape"/>
</filter>
</defs>
</svg>
