<svg width="40" height="42" viewBox="0 0 40 42" fill="none" xmlns="http://www.w3.org/2000/svg">
<g filter="url(#filter0_d_574_3353)">
<path d="M14 0V2H4V6H6V32C6 33.0609 6.42143 34.0783 7.17157 34.8284C7.92172 35.5786 8.93913 36 10 36H30C31.0609 36 32.0783 35.5786 32.8284 34.8284C33.5786 34.0783 34 33.0609 34 32V6H36V2H26V0H14ZM10 6H30V32H10V6ZM14 10V28H18V10H14ZM22 10V28H26V10H22Z" fill="black"/>
</g>
<defs>
<filter id="filter0_d_574_3353" x="0" y="0" width="40" height="44" filterUnits="userSpaceOnUse" color-interpolation-filters="sRGB">
<feFlood flood-opacity="0" result="BackgroundImageFix"/>
<feColorMatrix in="SourceAlpha" type="matrix" values="0 0 0 0 0 0 0 0 0 0 0 0 0 0 0 0 0 0 127 0" result="hardAlpha"/>
<feOffset dy="4"/>
<feGaussianBlur stdDeviation="2"/>
<feComposite in2="hardAlpha" operator="out"/>
<feColorMatrix type="matrix" values="0 0 0 0 0 0 0 0 0 0 0 0 0 0 0 0 0 0 0.25 0"/>
<feBlend mode="normal" in2="BackgroundImageFix" result="effect1_dropShadow_574_3353"/>
<feBlend mode="normal" in="SourceGraphic" in2="effect1_dropShadow_574_3353" result="shape"/>
</filter>
</defs>
</svg>
