<svg width="39" height="42" viewBox="0 0 39 42" fill="none" xmlns="http://www.w3.org/2000/svg">
<g filter="url(#filter0_d_465_2752)">
<path fill-rule="evenodd" clip-rule="evenodd" d="M4.98039 10.5185C4.98057 9.69045 5.55489 8.67402 6.26551 8.24652L18.6887 0.773141C19.3984 0.346203 20.5478 0.346203 21.2588 0.774641L33.6863 8.26227C34.3961 8.68977 34.9712 9.70658 34.971 10.5381L34.9658 25.4637C34.9656 26.293 34.3903 27.3134 33.6818 27.7426L21.2318 35.281C20.5228 35.7104 19.3749 35.7102 18.6649 35.2791L6.25857 27.7445C5.54982 27.3141 4.9757 26.2945 4.97607 25.4661L4.98039 10.5185ZM7.59339 9.30458L19.9373 16.1969L31.7059 9.39477L19.9174 2.47264L7.59339 9.30458ZM6.79726 11.5353C6.79726 11.8405 6.59757 25.009 6.59757 25.009C6.5912 25.4226 6.87264 25.931 7.22889 26.146L18.7811 33.1176L18.8874 18.6027C18.8874 18.6027 6.79726 11.2298 6.79726 11.5353ZM21.0673 33.0861L32.4883 25.8374C32.9256 25.5599 33.2801 24.9158 33.2801 24.3976V11.4612L21.0673 18.4949V33.0861Z" fill="#FFFEFC"/>
<path fill-rule="evenodd" clip-rule="evenodd" d="M10.58 18.8038C9.68334 19.3217 8.49458 18.9416 7.92496 17.9552C7.35552 16.9687 7.62084 15.7492 8.51746 15.2316C9.41427 14.7137 10.603 15.0937 11.1725 16.0802C11.7421 17.0666 11.4768 18.2861 10.58 18.8038ZM16.58 22.7413C15.6833 23.2592 14.4946 22.8791 13.925 21.8927C13.3555 20.9062 13.6208 19.6867 14.5175 19.1691C15.4143 18.6512 16.603 19.0312 17.1725 20.0177C17.7421 21.0041 17.4768 22.2236 16.58 22.7413ZM10.58 25.7413C9.68334 26.2592 8.49458 25.8791 7.92496 24.8927C7.35552 23.9062 7.62084 22.6867 8.51746 22.1691C9.41427 21.6512 10.603 22.0312 11.1725 23.0177C11.7421 24.0041 11.4768 25.2236 10.58 25.7413ZM16.58 29.6788C15.6833 30.1967 14.4946 29.8166 13.925 28.8302C13.3555 27.8437 13.6208 26.6242 14.5175 26.1066C15.4143 25.5887 16.603 25.9687 17.1725 26.9552C17.7421 27.9416 17.4768 29.1611 16.58 29.6788ZM31.2496 15.0441C30.3528 14.5262 29.1642 14.9062 28.5946 15.8927C28.0251 16.8791 28.2903 18.0986 29.1871 18.6163C30.0839 19.1342 31.2726 18.7541 31.8421 17.7677C32.4117 16.7812 32.1464 15.5617 31.2496 15.0441ZM28.205 20.4816C27.3083 19.9637 26.1196 20.3437 25.55 21.3302C24.9805 22.3166 25.2458 23.5361 26.1425 24.0538C27.0393 24.5717 28.228 24.1916 28.7975 23.2052C29.3671 22.2187 29.1018 20.9992 28.205 20.4816ZM25.0175 25.7316C24.1208 25.2137 22.9321 25.5937 22.3625 26.5802C21.793 27.5666 22.0583 28.7861 22.955 29.3038C23.8518 29.8217 25.0405 29.4416 25.61 28.4552C26.1796 27.4687 25.9143 26.2492 25.0175 25.7316ZM20.0937 6.9375C18.9029 6.9375 17.9375 7.86094 17.9375 9C17.9375 10.1391 18.9029 11.0625 20.0937 11.0625C21.2845 11.0625 22.25 10.1391 22.25 9C22.25 7.86094 21.2845 6.9375 20.0937 6.9375Z" fill="#FFFEFC"/>
</g>
<defs>
<filter id="filter0_d_465_2752" x="0.976074" y="0.453125" width="37.9951" height="43.1494" filterUnits="userSpaceOnUse" color-interpolation-filters="sRGB">
<feFlood flood-opacity="0" result="BackgroundImageFix"/>
<feColorMatrix in="SourceAlpha" type="matrix" values="0 0 0 0 0 0 0 0 0 0 0 0 0 0 0 0 0 0 127 0" result="hardAlpha"/>
<feOffset dy="4"/>
<feGaussianBlur stdDeviation="2"/>
<feComposite in2="hardAlpha" operator="out"/>
<feColorMatrix type="matrix" values="0 0 0 0 0 0 0 0 0 0 0 0 0 0 0 0 0 0 0.25 0"/>
<feBlend mode="normal" in2="BackgroundImageFix" result="effect1_dropShadow_465_2752"/>
<feBlend mode="normal" in="SourceGraphic" in2="effect1_dropShadow_465_2752" result="shape"/>
</filter>
</defs>
</svg>
