<svg width="24" height="24" viewBox="0 0 24 24" fill="none" xmlns="http://www.w3.org/2000/svg">
<path d="M13 11.6L15.5 14.1C15.6833 14.2833 15.775 14.5167 15.775 14.8C15.775 15.0833 15.6833 15.3167 15.5 15.5C15.3167 15.6833 15.0833 15.775 14.8 15.775C14.5167 15.775 14.2833 15.6833 14.1 15.5L11.3 12.7C11.2 12.6 11.125 12.4877 11.075 12.363C11.025 12.2383 11 12.109 11 11.975V8C11 7.71667 11.096 7.479 11.288 7.287C11.48 7.095 11.7173 6.99933 12 7C12.2833 7 12.521 7.096 12.713 7.288C12.905 7.48 13.0007 7.71733 13 8V11.6ZM12 21C9.98334 21 8.175 20.404 6.575 19.212C4.975 18.02 3.9 16.466 3.35 14.55C3.26667 14.25 3.296 13.9667 3.438 13.7C3.58 13.4333 3.80067 13.2667 4.1 13.2C4.38334 13.1333 4.63767 13.196 4.863 13.388C5.08834 13.58 5.24234 13.8173 5.325 14.1C5.75834 15.5667 6.596 16.75 7.838 17.65C9.08 18.55 10.4673 19 12 19C13.95 19 15.6043 18.3207 16.963 16.962C18.3217 15.6033 19.0007 13.9493 19 12C19 10.05 18.3207 8.39567 16.962 7.037C15.6033 5.67833 13.9493 4.99933 12 5C10.85 5 9.775 5.26667 8.775 5.8C7.775 6.33333 6.93334 7.06667 6.25 8H8C8.28334 8 8.521 8.096 8.713 8.288C8.905 8.48 9.00067 8.71733 9 9C9 9.28333 8.904 9.521 8.712 9.713C8.52 9.905 8.28267 10.0007 8 10H4C3.71667 10 3.479 9.904 3.287 9.712C3.095 9.52 2.99934 9.28267 3 9V5C3 4.71667 3.096 4.479 3.288 4.287C3.48 4.095 3.71734 3.99933 4 4C4.28334 4 4.521 4.096 4.713 4.288C4.905 4.48 5.00067 4.71733 5 5V6.35C5.85 5.28333 6.88767 4.45833 8.113 3.875C9.33834 3.29167 10.634 3 12 3C13.25 3 14.421 3.23767 15.513 3.713C16.605 4.18833 17.555 4.82967 18.363 5.637C19.171 6.44567 19.8127 7.39567 20.288 8.487C20.7633 9.57833 21.0007 10.7493 21 12C21 13.25 20.7623 14.421 20.287 15.513C19.8117 16.605 19.1703 17.555 18.363 18.363C17.5543 19.171 16.6043 19.8127 15.513 20.288C14.4217 20.7633 13.2507 21.0007 12 21Z" fill="black"/>
</svg>
