<svg width="45" height="48" viewBox="0 0 45 48" fill="none" xmlns="http://www.w3.org/2000/svg">
<mask id="path-1-inside-1_388_3652" fill="white">
<path fill-rule="evenodd" clip-rule="evenodd" d="M7.33984 40.4097L0.125 36.8681L0.202148 36.7109V11.1836L36.8991 0.0684907L36.9327 0L37.0062 0.0360581L37.1252 0V0.094495L44.6878 3.80672L44.5099 4.16913V29.5807L17.4283 37.7834L7.4286 48.0001H7.33984V40.4097Z"/>
</mask>
<path fill-rule="evenodd" clip-rule="evenodd" d="M7.33984 40.4097L0.125 36.8681L0.202148 36.7109V11.1836L36.8991 0.0684907L36.9327 0L37.0062 0.0360581L37.1252 0V0.094495L44.6878 3.80672L44.5099 4.16913V29.5807L17.4283 37.7834L7.4286 48.0001H7.33984V40.4097Z" fill="#FFFEFC"/>
<path d="M7.33984 40.4097H10.3398V38.5403L8.66178 37.7166L7.33984 40.4097ZM0.125 36.8681L-2.56804 35.5462L-3.88999 38.2392L-1.19694 39.5611L0.125 36.8681ZM0.202148 36.7109L2.89519 38.0329L3.20215 37.4075V36.7109H0.202148ZM0.202148 11.1836L-0.667501 8.31239L-2.79785 8.95765V11.1836H0.202148ZM36.8991 0.0684907L37.7687 2.93968L39.0173 2.5615L39.5922 1.39039L36.8991 0.0684907ZM36.9327 0L38.2547 -2.69303L35.5616 -4.01502L34.2397 -1.3219L36.9327 0ZM37.0062 0.0360581L35.6842 2.72909L36.7449 3.24977L37.8758 2.90725L37.0062 0.0360581ZM37.1252 0H40.1252V-4.04324L36.2556 -2.87119L37.1252 0ZM37.1252 0.094495H34.1252V1.96383L35.8033 2.78754L37.1252 0.094495ZM44.6878 3.80672L47.3808 5.12865L48.7027 2.43561L46.0097 1.11367L44.6878 3.80672ZM44.5099 4.16913L41.8168 2.8472L41.5099 3.47253V4.16913H44.5099ZM44.5099 29.5807L45.3795 32.4519L47.5099 31.8067V29.5807H44.5099ZM17.4283 37.7834L16.5587 34.9122L15.8225 35.1352L15.2844 35.685L17.4283 37.7834ZM7.4286 48.0001V51.0001H8.69015L9.57257 50.0986L7.4286 48.0001ZM7.33984 48.0001H4.33984V51.0001H7.33984V48.0001ZM8.66178 37.7166L1.44694 34.1751L-1.19694 39.5611L6.01791 43.1027L8.66178 37.7166ZM2.81804 38.19L2.89519 38.0329L-2.49089 35.389L-2.56804 35.5462L2.81804 38.19ZM3.20215 36.7109V11.1836H-2.79785V36.7109H3.20215ZM1.0718 14.0548L37.7687 2.93968L36.0295 -2.8027L-0.667501 8.31239L1.0718 14.0548ZM39.5922 1.39039L39.6258 1.3219L34.2397 -1.3219L34.206 -1.25341L39.5922 1.39039ZM35.6108 2.69303L35.6842 2.72909L38.3281 -2.65697L38.2547 -2.69303L35.6108 2.69303ZM37.8758 2.90725L37.9949 2.87119L36.2556 -2.87119L36.1365 -2.83513L37.8758 2.90725ZM34.1252 0V0.094495H40.1252V0H34.1252ZM35.8033 2.78754L43.3658 6.49976L46.0097 1.11367L38.4472 -2.59855L35.8033 2.78754ZM41.9947 2.48478L41.8168 2.8472L47.2029 5.49107L47.3808 5.12865L41.9947 2.48478ZM41.5099 4.16913V29.5807H47.5099V4.16913H41.5099ZM43.6402 26.7095L16.5587 34.9122L18.298 40.6546L45.3795 32.4519L43.6402 26.7095ZM9.57257 50.0986L19.5723 39.8818L15.2844 35.685L5.28464 45.9017L9.57257 50.0986ZM7.33984 51.0001H7.4286V45.0001H7.33984V51.0001ZM4.33984 40.4097V48.0001H10.3398V40.4097H4.33984Z" fill="#090909" mask="url(#path-1-inside-1_388_3652)"/>
</svg>
