<svg width="54" height="54" viewBox="0 0 54 54" fill="none" xmlns="http://www.w3.org/2000/svg">
<path d="M18.9999 13.6663V18.9997H29.6666V24.333H24.3333C22.9188 24.333 21.5622 24.8949 20.562 25.8951C19.5618 26.8953 18.9999 28.2519 18.9999 29.6663V40.333H34.9999V34.9997H24.3333V29.6663H29.6666C31.0811 29.6663 32.4376 29.1044 33.4378 28.1042C34.438 27.104 34.9999 25.7475 34.9999 24.333V18.9997C34.9999 17.5852 34.438 16.2286 33.4378 15.2284C32.4376 14.2282 31.0811 13.6663 29.6666 13.6663H18.9999ZM26.9999 0.333008C30.5018 0.333008 33.9695 1.02276 37.2048 2.36289C40.4402 3.70301 43.3799 5.66726 45.8561 8.14349C48.3323 10.6197 50.2966 13.5594 51.6367 16.7948C52.9768 20.0301 53.6666 23.4978 53.6666 26.9997C53.6666 34.0721 50.8571 40.8549 45.8561 45.8559C40.8551 50.8568 34.0724 53.6663 26.9999 53.6663C23.498 53.6663 20.0304 52.9766 16.795 51.6365C13.5597 50.2963 10.62 48.3321 8.14374 45.8559C3.14277 40.8549 0.333252 34.0721 0.333252 26.9997C0.333252 19.9272 3.14277 13.1445 8.14374 8.14349C13.1447 3.14252 19.9275 0.333008 26.9999 0.333008Z" fill="black"/>
</svg>
