<svg width="54" height="54" viewBox="0 0 54 54" fill="none" xmlns="http://www.w3.org/2000/svg">
<path d="M19.0002 13.6663V29.6663H29.6668V40.333H35.0002V13.6663H29.6668V24.333H24.3335V13.6663H19.0002ZM27.0002 0.333008C30.5021 0.333008 33.9697 1.02276 37.2051 2.36289C40.4404 3.70301 43.3801 5.66726 45.8563 8.14349C48.3326 10.6197 50.2968 13.5594 51.637 16.7948C52.9771 20.0301 53.6668 23.4978 53.6668 26.9997C53.6668 34.0721 50.8573 40.8549 45.8563 45.8559C40.8554 50.8568 34.0726 53.6663 27.0002 53.6663C23.4982 53.6663 20.0306 52.9766 16.7953 51.6365C13.5599 50.2963 10.6202 48.3321 8.14398 45.8559C3.14301 40.8549 0.333496 34.0721 0.333496 26.9997C0.333496 19.9272 3.14301 13.1445 8.14398 8.14349C13.145 3.14252 19.9277 0.333008 27.0002 0.333008Z" fill="black"/>
</svg>
