<svg width="54" height="54" viewBox="0 0 54 54" fill="none" xmlns="http://www.w3.org/2000/svg">
<path d="M18.9997 13.6663V29.6663H29.6663V34.9997H18.9997V40.333H29.6663C31.0808 40.333 32.4374 39.7711 33.4376 38.7709C34.4378 37.7707 34.9997 36.4142 34.9997 34.9997V29.6663C34.9997 28.2519 34.4378 26.8953 33.4376 25.8951C32.4374 24.8949 31.0808 24.333 29.6663 24.333H24.333V18.9997H34.9997V13.6663H18.9997ZM26.9997 0.333008C30.5016 0.333008 33.9692 1.02276 37.2046 2.36289C40.4399 3.70301 43.3796 5.66726 45.8559 8.14349C48.3321 10.6197 50.2963 13.5594 51.6365 16.7948C52.9766 20.0301 53.6663 23.4978 53.6663 26.9997C53.6663 34.0721 50.8568 40.8549 45.8559 45.8559C40.8549 50.8568 34.0721 53.6663 26.9997 53.6663C23.4978 53.6663 20.0301 52.9766 16.7948 51.6365C13.5594 50.2963 10.6197 48.3321 8.14349 45.8559C3.14252 40.8549 0.333008 34.0721 0.333008 26.9997C0.333008 19.9272 3.14252 13.1445 8.14349 8.14349C13.1445 3.14252 19.9272 0.333008 26.9997 0.333008Z" fill="black"/>
</svg>
