<svg width="54" height="54" viewBox="0 0 54 54" fill="none" xmlns="http://www.w3.org/2000/svg">
<path d="M27.0002 46.2002C20.3335 46.2002 14.4402 42.7868 11.0002 37.6668C11.0802 32.3335 21.6668 29.4002 27.0002 29.4002C32.3335 29.4002 42.9202 32.3335 43.0002 37.6668C41.2372 40.2919 38.8558 42.4432 36.0657 43.9313C33.2755 45.4194 30.1623 46.1985 27.0002 46.2002ZM27.0002 8.3335C29.1219 8.3335 31.1567 9.17635 32.657 10.6766C34.1573 12.1769 35.0002 14.2118 35.0002 16.3335C35.0002 18.4552 34.1573 20.4901 32.657 21.9904C31.1567 23.4906 29.1219 24.3335 27.0002 24.3335C24.8784 24.3335 22.8436 23.4906 21.3433 21.9904C19.843 20.4901 19.0002 18.4552 19.0002 16.3335C19.0002 14.2118 19.843 12.1769 21.3433 10.6766C22.8436 9.17635 24.8784 8.3335 27.0002 8.3335ZM27.0002 0.333496C23.4982 0.333496 20.0306 1.02325 16.7953 2.36338C13.5599 3.7035 10.6202 5.66775 8.14398 8.14398C3.14301 13.145 0.333496 19.9277 0.333496 27.0002C0.333496 34.0726 3.14301 40.8554 8.14398 45.8563C10.6202 48.3326 13.5599 50.2968 16.7953 51.637C20.0306 52.9771 23.4982 53.6668 27.0002 53.6668C34.0726 53.6668 40.8554 50.8573 45.8563 45.8563C50.8573 40.8554 53.6668 34.0726 53.6668 27.0002C53.6668 12.2535 41.6668 0.333496 27.0002 0.333496Z" fill="black"/>
</svg>
