<svg width="54" height="56" viewBox="0 0 54 56" fill="none" xmlns="http://www.w3.org/2000/svg">
<path fill-rule="evenodd" clip-rule="evenodd" d="M22.0348 0.839797C23.2293 0.481487 24.4909 0.407365 25.7191 0.623347C26.9473 0.839329 28.1079 1.33943 29.1085 2.08374C30.109 2.82805 30.9217 3.79595 31.4816 4.91018C32.0416 6.02441 32.3333 7.25411 32.3335 8.50113V47.4985C32.3333 48.7455 32.0416 49.9752 31.4816 51.0894C30.9217 52.2036 30.109 53.1715 29.1085 53.9158C28.1079 54.6602 26.9473 55.1603 25.7191 55.3762C24.4909 55.5922 23.2293 55.5181 22.0348 55.1598L6.03483 50.3598C4.3871 49.8655 2.94259 48.8532 1.91558 47.4732C0.888573 46.0931 0.333778 44.4187 0.333496 42.6985V13.3011C0.333778 11.5809 0.888573 9.90649 1.91558 8.52642C2.94259 7.14635 4.3871 6.13409 6.03483 5.6398L22.0348 0.839797ZM35.0002 6.66646C35.0002 5.95922 35.2811 5.28094 35.7812 4.78085C36.2813 4.28075 36.9596 3.9998 37.6668 3.9998H45.6668C47.7886 3.9998 49.8234 4.84265 51.3237 6.34294C52.824 7.84323 53.6668 9.87806 53.6668 11.9998V14.6665C53.6668 15.3737 53.3859 16.052 52.8858 16.5521C52.3857 17.0522 51.7074 17.3331 51.0002 17.3331C50.2929 17.3331 49.6146 17.0522 49.1145 16.5521C48.6144 16.052 48.3335 15.3737 48.3335 14.6665V11.9998C48.3335 11.2926 48.0525 10.6143 47.5524 10.1142C47.0523 9.61408 46.3741 9.33313 45.6668 9.33313H37.6668C36.9596 9.33313 36.2813 9.05218 35.7812 8.55208C35.2811 8.05198 35.0002 7.37371 35.0002 6.66646ZM51.0002 38.6665C51.7074 38.6665 52.3857 38.9474 52.8858 39.4475C53.3859 39.9476 53.6668 40.6259 53.6668 41.3331V43.9998C53.6668 46.1215 52.824 48.1564 51.3237 49.6567C49.8234 51.1569 47.7886 51.9998 45.6668 51.9998H37.6668C36.9596 51.9998 36.2813 51.7188 35.7812 51.2187C35.2811 50.7187 35.0002 50.0404 35.0002 49.3331C35.0002 48.6259 35.2811 47.9476 35.7812 47.4475C36.2813 46.9474 36.9596 46.6665 37.6668 46.6665H45.6668C46.3741 46.6665 47.0523 46.3855 47.5524 45.8854C48.0525 45.3853 48.3335 44.707 48.3335 43.9998V41.3331C48.3335 40.6259 48.6144 39.9476 49.1145 39.4475C49.6146 38.9474 50.2929 38.6665 51.0002 38.6665ZM19.0002 25.3331C18.2929 25.3331 17.6146 25.6141 17.1145 26.1142C16.6144 26.6143 16.3335 27.2926 16.3335 27.9998C16.3335 28.707 16.6144 29.3853 17.1145 29.8854C17.6146 30.3855 18.2929 30.6665 19.0002 30.6665H19.0028C19.7101 30.6665 20.3883 30.3855 20.8884 29.8854C21.3885 29.3853 21.6695 28.707 21.6695 27.9998C21.6695 27.2926 21.3885 26.6143 20.8884 26.1142C20.3883 25.6141 19.7101 25.3331 19.0028 25.3331H19.0002Z" fill="black"/>
<path d="M51.0003 27.9998H37.667M37.667 27.9998L43.0003 22.6665M37.667 27.9998L43.0003 33.3332" stroke="black" stroke-width="2" stroke-linecap="round" stroke-linejoin="round"/>
</svg>
